<mxfile modified="2019-10-22T20:07:38.017Z" host="www.draw.io" agent="Mozilla/5.0 (Macintosh; Intel Mac OS X 10_14_6) AppleWebKit/537.36 (KHTML, like Gecko) Chrome/77.0.3865.120 Safari/537.36" etag="QfMjcpD9uXU-Wn1v9nVv" version="12.1.3" type="github" pages="1">
  <diagram id="7gcUSTIZ7YSJ5vT40chW" name="Page-1">
    <mxGraphModel dx="1026" dy="456" grid="1" gridSize="10" guides="1" tooltips="1" connect="1" arrows="1" fold="1" page="1" pageScale="1" pageWidth="1169" pageHeight="827" math="0" shadow="0">
      <root>
        <mxCell id="0"/>
        <mxCell id="1" parent="0"/>
        <mxCell id="vS10Q0bFLuJ3R36XyXq_-3" value="" style="edgeStyle=segmentEdgeStyle;endArrow=classic;html=1;" edge="1" parent="1" target="vS10Q0bFLuJ3R36XyXq_-2">
          <mxGeometry width="50" height="50" relative="1" as="geometry">
            <mxPoint x="420" y="251.5" as="sourcePoint"/>
            <mxPoint x="470" y="201.5" as="targetPoint"/>
          </mxGeometry>
        </mxCell>
        <mxCell id="SZY12_XKgGBlkoAp8IEY-12" style="edgeStyle=orthogonalEdgeStyle;rounded=0;orthogonalLoop=1;jettySize=auto;html=1;strokeColor=#808080;entryX=0;entryY=0.5;entryDx=0;entryDy=0;" parent="1" source="SZY12_XKgGBlkoAp8IEY-1" target="s3V0FGwePLYo2Qi6QxZB-1" edge="1">
          <mxGeometry relative="1" as="geometry">
            <mxPoint x="375.5" y="245.5" as="targetPoint"/>
          </mxGeometry>
        </mxCell>
        <mxCell id="SZY12_XKgGBlkoAp8IEY-1" value="" style="aspect=fixed;html=1;perimeter=none;align=center;shadow=0;dashed=0;image;fontSize=12;image=img/lib/mscae/NetworkInterfaceCard.svg;" parent="1" vertex="1">
          <mxGeometry x="184.5" y="220.5" width="44.5" height="50" as="geometry"/>
        </mxCell>
        <mxCell id="SZY12_XKgGBlkoAp8IEY-13" style="edgeStyle=elbowEdgeStyle;rounded=0;orthogonalLoop=1;jettySize=auto;html=1;strokeColor=#808080;elbow=vertical;" parent="1" target="s3V0FGwePLYo2Qi6QxZB-3" edge="1">
          <mxGeometry relative="1" as="geometry">
            <mxPoint x="554.5" y="246" as="targetPoint"/>
            <mxPoint x="490" y="246" as="sourcePoint"/>
          </mxGeometry>
        </mxCell>
        <mxCell id="s3V0FGwePLYo2Qi6QxZB-1" value="" style="shape=image;verticalLabelPosition=bottom;labelBackgroundColor=#ffffff;verticalAlign=top;aspect=fixed;imageAspect=0;image=data:image/svg+xml,PHN2ZyB4bWxuczpkYz0iaHR0cDovL3B1cmwub3JnL2RjL2VsZW1lbnRzLzEuMS8iIHhtbG5zOmNjPSJodHRwOi8vY3JlYXRpdmVjb21tb25zLm9yZy9ucyMiIHhtbG5zOnJkZj0iaHR0cDovL3d3dy53My5vcmcvMTk5OS8wMi8yMi1yZGYtc3ludGF4LW5zIyIgeG1sbnM6c3ZnPSJodHRwOi8vd3d3LnczLm9yZy8yMDAwL3N2ZyIgeG1sbnM9Imh0dHA6Ly93d3cudzMub3JnLzIwMDAvc3ZnIiB4bWxuczpzb2RpcG9kaT0iaHR0cDovL3NvZGlwb2RpLnNvdXJjZWZvcmdlLm5ldC9EVEQvc29kaXBvZGktMC5kdGQiIHhtbG5zOmlua3NjYXBlPSJodHRwOi8vd3d3Lmlua3NjYXBlLm9yZy9uYW1lc3BhY2VzL2lua3NjYXBlIiB2ZXJzaW9uPSIxLjEiIGlkPSJzdmczMzgiIGlua3NjYXBlOnZlcnNpb249IjAuOTIuMyAoMjQwNTU0NiwgMjAxOC0wMy0xMSkiIHNvZGlwb2RpOmRvY25hbWU9ImF3c19sb2dvLnN2ZyIgeD0iMHB4IiB5PSIwcHgiIHZpZXdCb3g9IjAgMCAxNDguOTgwMSA1NS45NDI5IiB4bWw6c3BhY2U9InByZXNlcnZlIiB3aWR0aD0iMTQ4Ljk4MDEiIGhlaWdodD0iNTUuOTQyOTAyIj48bWV0YWRhdGEgaWQ9Im1ldGFkYXRhMTM1NDciPjxyZGY6UkRGPjxjYzpXb3JrIHJkZjphYm91dD0iIj48ZGM6Zm9ybWF0PmltYWdlL3N2Zyt4bWw8L2RjOmZvcm1hdD48ZGM6dHlwZSByZGY6cmVzb3VyY2U9Imh0dHA6Ly9wdXJsLm9yZy9kYy9kY21pdHlwZS9TdGlsbEltYWdlIi8+PGRjOnRpdGxlLz48L2NjOldvcms+PC9yZGY6UkRGPjwvbWV0YWRhdGE+PGRlZnMgaWQ9ImRlZnMxMzU0NSI+JiN4YTsJJiN4YTsJJiN4YTsmI3hhOwkJJiN4YTsJCSYjeGE7CQkmI3hhOwkmI3hhOwkJCSYjeGE7CQkJJiN4YTsJCQkmI3hhOwkJJiN4YTsJCQkmI3hhOwkJCSYjeGE7CQkJJiN4YTsJCSYjeGE7CQkJCSYjeGE7CQkJJiN4YTsJCQkJJiN4YTsJCQk8L2RlZnM+JiN4YTs8c29kaXBvZGk6bmFtZWR2aWV3IGJvcmRlcmNvbG9yPSIjNjY2NjY2IiBib3JkZXJvcGFjaXR5PSIxIiBmaXQtbWFyZ2luLWJvdHRvbT0iMCIgZml0LW1hcmdpbi1sZWZ0PSIwIiBmaXQtbWFyZ2luLXJpZ2h0PSIwIiBmaXQtbWFyZ2luLXRvcD0iMCIgZ3JpZHRvbGVyYW5jZT0iMTAiIGd1aWRldG9sZXJhbmNlPSIxMCIgaWQ9Im5hbWVkdmlldzM0MCIgaW5rc2NhcGU6Y3VycmVudC1sYXllcj0ic3ZnMzM4IiBpbmtzY2FwZTpjeD0iNjEuNDY1MzI3IiBpbmtzY2FwZTpjeT0iMjAuMTg3OTUyIiBpbmtzY2FwZTpwYWdlb3BhY2l0eT0iMCIgaW5rc2NhcGU6cGFnZXNoYWRvdz0iMiIgaW5rc2NhcGU6d2luZG93LWhlaWdodD0iMTAxNyIgaW5rc2NhcGU6d2luZG93LW1heGltaXplZD0iMSIgaW5rc2NhcGU6d2luZG93LXdpZHRoPSIxOTIwIiBpbmtzY2FwZTp3aW5kb3cteD0iLTgiIGlua3NjYXBlOndpbmRvdy15PSItOCIgaW5rc2NhcGU6em9vbT0iOC42MjM4OTM0IiBvYmplY3R0b2xlcmFuY2U9IjEwIiBwYWdlY29sb3I9IiNmZmZmZmYiIHNob3dncmlkPSJmYWxzZSI+JiN4YTsJPC9zb2RpcG9kaTpuYW1lZHZpZXc+JiN4YTs8cGF0aCBkPSJtIDQ4LjEzMDEsMjAuNTIyOSBjIC0yLjkxLDAgLTYuMTcsMS4xMiAtNi44NSw0LjgyIC0wLjA3LDAuMzkgMC4xOSwwLjU4IDAuNDQsMC42NCBsIDIuOTksMC4zNiBjIDAuMjcsLTAuMDIgMC40NiwtMC4zMiAwLjUxLC0wLjYgMC4yNiwtMS4yNyAxLjMxLC0xLjg3IDIuNDcsLTEuODcgMC42MywwIDEuMzQsMC4yMSAxLjcyLDAuNzkgMC40MiwwLjY1IDAuMzksMS41MyAwLjM5LDIuMjcgdiAwLjQ0IGMgLTEuNzcsMC4yMSAtNC4xMSwwLjMzIC01Ljc3LDEuMDggLTEuOTIsMC44NSAtMy4yNywyLjU5IC0zLjI3LDUuMTQgMCwzLjI3IDIsNC45IDQuNTgsNC45IDIuMTgsMCAzLjM4LC0wLjUxIDUuMDYsLTIuMjcgMC41NiwwLjgzIDAuNzQsMS4yIDEuNzYsMi4wNyAwLjIyLDAuMTIgMC41MSwwLjExIDAuNzEsLTAuMDggdiAwLjA0IGMgMC42MiwtMC41NiAxLjczLC0xLjU3IDIuMzUsLTIuMTEgMC4yNSwtMC4yMSAwLjIsLTAuNTUgMCwtMC44NCAtMC41NiwtMC43OSAtMS4xNSwtMS40MyAtMS4xNSwtMi45MSB2IC00LjkgYyAwLC0yLjA3IDAuMTgsLTMuOTkgLTEuMzIsLTUuNDIgLTEuMTcsLTEuMTUgLTMuMTMsLTEuNTUgLTQuNjIsLTEuNTUgeiBtIDQwLjE2LDAgYyAtMi45MSwwIC02LjE3LDEuMTIgLTYuODUsNC44MiAtMC4wNywwLjM5IDAuMTksMC41OCAwLjQ0LDAuNjQgbCAyLjk5LDAuMzYgYyAwLjI3LC0wLjAyIDAuNDYsLTAuMzIgMC41MiwtMC42IDAuMjUsLTEuMjcgMS4zLC0xLjg3IDIuNDYsLTEuODcgMC42NCwwIDEuMzQsMC4yMSAxLjcyLDAuNzkgMC40MiwwLjY1IDAuMzYsMS41MyAwLjM2LDIuMjcgdiAwLjQ0IGMgLTEuNzgsMC4yMSAtNC4wOCwwLjMzIC01Ljc0LDEuMDggLTEuOTIsMC44NSAtMy4yNywyLjU5IC0zLjI3LDUuMTQgMCwzLjI3IDIsNC45IDQuNTgsNC45IDIuMTgsMCAzLjM4LC0wLjUxIDUuMDYsLTIuMjcgMC41NiwwLjgzIDAuNzQsMS4yIDEuNzYsMi4wNyAwLjIzLDAuMTIgMC41MSwwLjExIDAuNzEsLTAuMDggdiAwLjA0IGMgMC42MiwtMC41NiAxLjcyOTk5NSwtMS41NyAyLjM1OTk5NSwtMi4xMSAwLjI1LC0wLjIxIDAuMTksLTAuNTUgMCwtMC44NCAtMC41NiwtMC43OSAtMS4xNiwtMS40MyAtMS4xNiwtMi45MSB2IC00LjkgYyAwLC0yLjA3IDAuMTQsLTMuOTkgLTEuMzQ5OTk1LC01LjQyIC0xLjE4LC0xLjE1IC0zLjEsLTEuNTUgLTQuNTksLTEuNTUgeiBtIC0yMi41OSwwLjE2IGMgLTEuODgsMCAtMy4yOCwwLjk1IC00LjAyLDIuOTkgaCAtMC4wNCB2IC0yLjExIGMgLTAuMDIsLTAuMyAtMC4yNiwtMC41NSAtMC41NiwtMC41NiBoIC0yLjg3IGMgLTAuMzIsMCAtMC41OSwwLjI3IC0wLjU5LDAuNiB2IDE2LjEzIGMgMC4wMiwwLjI5IDAuMjYsMC41NCAwLjU1LDAuNTYgaCAzLjA3IGMgMC4zMywwIDAuNiwtMC4yNyAwLjYsLTAuNiB2IC04LjU2IGMgMCwtMS44NyAtMC4wOSwtNC40MiAyLjExLC00LjQyIDIuMTcsMCAxLjg3LDIuNjIgMS44Nyw0LjQyIHYgOC41NiBjIDAsMC4zMSAwLjI1LDAuNTggMC41NiwwLjYgaCAzLjA3IGMgMC4zMywwIDAuNiwtMC4yNyAwLjYsLTAuNiB2IC04LjU2IGMgMCwtMC45MiAtMC4wNCwtMi4yNSAwLjI4LC0zLjA3IDAuMzEsLTAuODIgMS4wOCwtMS4zNSAxLjgzLC0xLjM1IDAuODksMCAxLjU2LDAuMyAxLjc5LDEuMzkgMC4xNCwwLjY1IDAuMDgsMi4zNSAwLjA4LDMuMDMgdiA4LjU2IGMgMCwwLjMxIDAuMjUsMC41OCAwLjU2LDAuNiBoIDMuMDcgYyAwLjMyLDAgMC41OSwtMC4yNyAwLjU5LC0wLjYgdiAtMTAuMiBjIDAsLTEuNzMgMC4xOCwtMy43IC0wLjc5LC01LjA2IC0wLjg2LC0xLjIyIC0yLjI2LC0xLjc1IC0zLjU1LC0xLjc1IC0xLjgsMCAtMy40OCwwLjk1IC00LjIyLDIuOTkgLTAuODYsLTIuMDQgLTIuMDcsLTIuOTkgLTMuOTksLTIuOTkgeiBtIDUyLjE2MDAxLDAgYyAtNC40MzAwMSwwIC02Ljg5MDAxLDMuOSAtNi44OTAwMSw4LjkyIDAsNSAyLjQzLDkuMDEgNi44OTAwMSw5LjAxIDQuMjg5OTksMCA3LjAwOTk5LC0zLjkyIDcuMDA5OTksLTguODUgMCwtNS4wOSAtMi40NTk5OSwtOS4wOCAtNy4wMDk5OSwtOS4wOCB6IG0gMTcuNDg5OTksMCBjIC0yLjEyLDAgLTMuMzMsMS4wNiAtNC4xOCwzLjI3IGggLTAuMDQgdiAtMi40NyBjIC0wLjA2LC0wLjI1IC0wLjI5LC0wLjQzIC0wLjU2LC0wLjQ0IGggLTIuODMgYyAtMC4zMSwwIC0wLjU3LDAuMjIgLTAuNiwwLjUyIHYgMTYuMTQgYyAwLDAuMyAwLjI1LDAuNTcgMC41NiwwLjU5IGggMy4wMyBjIDAuMzIsMCAwLjU5LC0wLjI3IDAuNTksLTAuNTkgdiAtOC42OSBjIDAsLTEuMDkgMC4xLC0yLjA4IDAuNTIsLTMuMDcgMC4zNSwtMC43OCAxLjAxLC0xLjI3IDEuNzYsLTEuMjcgMi4xMSwwIDEuOTEsMi41NyAxLjkxLDQuMzQgdiA4Ljc3IGMgMC4wMywwLjI3IDAuMjgsMC41IDAuNTYsMC41MSBoIDMuMDcgYyAwLjMsMCAwLjU2LC0wLjIyIDAuNTksLTAuNTEgdiAtMTAuMTYgYyAwLC0xLjU3IDAuMDEsLTMuNzQgLTAuNzksLTUuMDIgLTAuODYsLTEuNCAtMi4yMiwtMS45MiAtMy41OSwtMS45MiB6IG0gLTM2LjgyMDAwNSwwLjI4IGMgLTAuMzEsMCAtMC41NSwwLjI1IC0wLjU1LDAuNiB2IDIuMzEgYyAwLDAuMzQgMC4yNCwwLjU5IDAuNTUsMC41OSBoIDUuMjcwMDE1IGwgLTYuMDIwMDE1LDguODkgYyAtMC4zNjk5OSwwLjU3IC0wLjM5OTk5LDEuMjIgLTAuMzk5OTksMS41OSB2IDIuMzYgYyAwLDAuMzMgMC4zNjk5OSwwLjcgMC43MTk5OSwwLjUxIDMuNDMwMDA1LC0xLjg3IDcuNTQwMDE1LC0xLjcgMTAuNjQwMDE1LC0wLjA0IDAuMzcsMC4yMSAwLjc1LC0wLjE4IDAuNzUsLTAuNTEgdiAtMi40NyBjIC0wLjAzLC0wLjMzIC0wLjE2LC0wLjY1IC0wLjU1LC0wLjg4IC0xLjc2MDAxLC0xLjAxIC0zLjgxLC0xLjMyIC01Ljc0LC0xLjI4IGwgNS4yMiwtNy42NSBjIDAuNDc5OTksLTAuNjggMC43NSwtMS4xIDAuNzUsLTEuNDMgdiAtMS45OSBjIDAsLTAuMzUgLTAuMjMwMDEsLTAuNiAtMC41NTAwMSwtMC42IHogbSAxOS4zMzAwMTUsMy4wMyBjIDAuOTcsMCAxLjY5LDAuNDMgMi4wMywxLjU1IDAuNCwxLjI5IDAuNDQsMi45IDAuNDQsNC4yNiAwLDIuMDcgLTAuMSw1LjUgLTIuNDcsNS41IC0yLjQwMDAxLDAgLTIuMzkwMDEsLTQuMjQgLTIuMzkwMDEsLTYuMjIgMCwtMS45NiAwLjEzLC01LjA5IDIuMzkwMDEsLTUuMDkgeiBtIC02OC4wOTAwMSw1Ljg5IHYgMC42OCBjIDAsMS4yMyAwLjA0LDIuMjYgLTAuNTYsMy4zNSAtMC40OSwwLjg4IC0xLjI2LDEuNDMgLTIuMTEsMS40MyAtMS4xOCwwIC0xLjg4LC0wLjk1IC0xLjg4LC0yLjMxIDAsLTIuNjggMi4zMywtMy4xNSA0LjU1LC0zLjE1IHogbSA0MC4xNiwwIHYgMC42OCBjIDAsMS4yMyAwLjA0LDIuMjYgLTAuNTYsMy4zNSAtMC40OSwwLjg4IC0xLjI1LDEuNDMgLTIuMTEsMS40MyAtMS4xNywwIC0xLjg3LC0wLjk1IC0xLjg3LC0yLjMxIDAsLTIuNjggMi4zMiwtMy4xNSA0LjU0LC0zLjE1IHogbSAxOS44OCw4LjkzIHYgMi4zMSBoIDEuNTUwMDEgdiAtMi4zMSB6IG0gLTQ1LjA2LDAuNCB2IDE2LjQ1IGggMS40MyB2IC0xLjQ3IGMgMC4zMSwwLjU4IDAuNjYsMS4wMiAxLjA4LDEuMzEgMC40MiwwLjMgMC45LDAuNDQgMS40MywwLjQ0IDEuMDYsMCAxLjk3LC0wLjU0IDIuNzUsLTEuNjMgMC43OSwtMS4xIDEuMiwtMi42OSAxLjIsLTQuNzEgMCwtMS4zMiAtMC4xNywtMi40MiAtMC41MiwtMy4zNCAtMC4zNSwtMC45MyAtMC44MSwtMS42MiAtMS40LC0yLjA3IC0wLjU4LC0wLjQ2IC0xLjI0LC0wLjcyIC0xLjk1LC0wLjcyIC0wLjUxLDAgLTAuOTgsMC4xMyAtMS4zOSwwLjQgLTAuNDIsMC4yNiAtMC43NSwwLjY5IC0xLjA4LDEuMjMgdiAtNS44OSB6IG0gMTQuNzQsMy44NiBjIC0xLjA4LDAgLTEuOTQsMC4zMiAtMi41NSwwLjk2IC0wLjYxLDAuNjMgLTAuOTIsMS40NSAtMC45MiwyLjQ3IDAsMC41OSAwLjE0LDEuMDkgMC4zNiwxLjU1IDAuMjMsMC40NiAwLjU1LDAuODQgMC45NiwxLjEyIDAuNDEsMC4yNyAxLjIyLDAuNjMgMi40MywxLjAzIDAuODMsMC4yNyAxLjMzLDAuNSAxLjU1LDAuNjggMC4zMiwwLjI2IDAuNDgsMC42MSAwLjQ4LDEuMDggMCwwLjU0IC0wLjE5LDEgLTAuNTYsMS4zNSAtMC4zNywwLjM2IC0wLjg4LDAuNTIgLTEuNTUsMC41MiAtMC42NywwIC0xLjIzLC0wLjE5IC0xLjYzLC0wLjYgLTAuNDEsLTAuNDEgLTAuNjMsLTEuMDMgLTAuNzIsLTEuODcgbCAtMS41NiwwLjMyIGMgMC4zNiwyLjU1IDEuNjMsMy44MiAzLjgzLDMuODIgMS4xNywwIDIuMDcsLTAuMzMgMi43NSwtMS4wMyAwLjY4LC0wLjcxIDEuMDQsLTEuNjUgMS4wNCwtMi43OSAwLC0wLjYyIC0wLjExLC0xLjE1IC0wLjMyLC0xLjYgLTAuMjEsLTAuNDQgLTAuNSwtMC43NyAtMC44OCwtMS4wMyAtMC4zOCwtMC4yNiAtMS4yMiwtMC42IC0yLjUxLC0xLjA0IC0wLjk0LC0wLjMzIC0xLjQ4LC0wLjU3IC0xLjY3LC0wLjcyIC0wLjMyLC0wLjI1IC0wLjQ4LC0wLjU5IC0wLjQ4LC0xLjAzIDAsLTAuNDUgMC4xNSwtMC44MyAwLjQ4LC0xLjEyIDAuMzMsLTAuMjggMC44NCwtMC40NCAxLjUxLC0wLjQ0IDEuMTksMCAxLjg1LDAuNjYgMS45OSwxLjk2IGwgMS41MiwtMC4yNCBjIC0wLjExLC0wLjgyIC0wLjI5LC0xLjQ3IC0wLjU2LC0xLjkxIC0wLjI4LC0wLjQ0IC0wLjY4LC0wLjgyIC0xLjIsLTEuMDggLTAuNTEsLTAuMjYgLTEuMTEsLTAuMzYgLTEuNzksLTAuMzYgeiBtIDkuNTIsMCBjIC0xLjI0LDAgLTIuMywwLjUyIC0zLjExLDEuNiAtMC44MSwxLjA4IC0xLjE5LDIuNjQgLTEuMTksNC43IDAsMS45OCAwLjM5LDMuNTMgMS4xOSw0LjU4IDAuODEsMS4wNSAxLjg1LDEuNTUgMy4xNSwxLjU1IDEuMDMsMCAxLjg5LC0wLjMxIDIuNTksLTAuOTUgMC43LC0wLjY1IDEuMjEsLTEuNiAxLjQ3LC0yLjg3IGwgLTEuNTksLTAuMjggYyAtMC40NiwxLjYzIC0xLjMsMi40MyAtMi40NywyLjQzIC0wLjc0LDAgLTEuMzUsLTAuMzIgLTEuODcsLTEgLTAuNTIsLTAuNjggLTAuODEsLTEuNjkgLTAuODgsLTMuMDIgaCA2Ljg1IHYgLTAuNTYgYyAwLC0yLjAxIC0wLjQsLTMuNTIgLTEuMTksLTQuNTggLTAuNzksLTEuMDcgLTEuNzYsLTEuNiAtMi45NSwtMS42IHogbSA5LjQ0OTk5NSwwIGMgLTAuMzc5OTksMCAtMC42OTk5OSwwLjEzIC0xLDAuNCAtMC4yOTk5OSwwLjI3IC0wLjYzOTk5LDAuODQgLTAuOTg5OTksMS42NyB2IC0xLjgzIGggLTEuNCB2IDExLjkxIGggMS41NDk5OSB2IC02LjIxIGMgMCwtMC44NyAwLjA4LC0xLjcgMC4yOCwtMi40NyAwLjEyMDAxLC0wLjQ0IDAuMzMwMDEsLTAuNzkgMC42MDAwMSwtMS4wNCAwLjI3LC0wLjI0IDAuNTksLTAuMzYgMC45MiwtMC4zNiAwLjM2LDAgMC43Mjk5OSwwLjE1IDEuMTEsMC40NCBsIDAuNTIwMDA1LC0xLjg3IGMgLTAuNTQwMDA1LC0wLjQzIC0xLjA3MDAwNSwtMC42NCAtMS41OTAwMTUsLTAuNjQgeiBtIDE5LjA0MDAxNSwwIGMgLTEuMjMsMCAtMi4yNCwwLjUyIC0zLjAzLDEuNTYgLTAuNzgsMS4wMyAtMS4xOSwyLjU5IC0xLjE5LDQuNjYgMCwyLjA1IDAuNDIsMy42MSAxLjE5LDQuNjYgMC43OCwxLjA1IDEuNzUsMS41NSAyLjk1LDEuNTUgMC45OSwwIDEuODUsLTAuMzcgMi41NSwtMS4xMSAwLjcwOTk5LC0wLjc1IDEuMTQsLTEuODUgMS4zMiwtMy4yNyBsIC0xLjUyLC0wLjI0IGMgLTAuMTEsMS4wMSAtMC4zNzAwMSwxLjc1IC0wLjc5LDIuMjMgLTAuNDIwMDEsMC40OCAtMC45MywwLjcyIC0xLjUyMDAxLDAuNzIgLTAuNzUsMCAtMS4zODk5OSwtMC4zNSAtMS44NywtMS4wOCAtMC40Nzk5OSwtMC43MiAtMC43MiwtMS44OCAtMC43MiwtMy41MSAwLC0xLjU3IDAuMjYwMDEsLTIuNyAwLjc2MDAxLC0zLjQyIDAuNSwtMC43MiAxLjE1LC0xLjEyIDEuOTEsLTEuMTIgMC41MSwwIDAuOTUsMC4yIDEuMzIsMC42IDAuMzU5OTksMC40IDAuNjA5OTksMS4wMyAwLjc1LDEuODMgbCAxLjUxOTk5LC0wLjMyIGMgLTAuMTgsLTEuMjUgLTAuNTksLTIuMiAtMS4yMzk5OSwtMi44MyAtMC42NSwtMC42MiAtMS40NCwtMC45MSAtMi4zOSwtMC45MSB6IG0gOC44ODk5OSwwIGMgLTEuMjUsMCAtMi4yOTk5OSwwLjUyIC0zLjEwOTk5LDEuNiAtMC44MSwxLjA4IC0xLjIwMDAxLDIuNjQgLTEuMjAwMDEsNC43IDAsMS45OCAwLjM5MDAxLDMuNTMgMS4yMDAwMSw0LjU4IDAuNzk5OTksMS4wNSAxLjg1LDEuNTUgMy4xNSwxLjU1IDEuMDMsMCAxLjg4LC0wLjMxIDIuNTc5OTksLTAuOTUgMC43MDAwMSwtMC42NSAxLjIxMDAxLC0xLjYgMS40ODAwMSwtMi44NyBsIC0xLjYsLTAuMjggYyAtMC40NSwxLjYzIC0xLjI2LDIuNDMgLTIuNDMsMi40MyAtMC43NCwwIC0xLjM5MDAxLC0wLjMyIC0xLjkxLC0xIC0wLjUyLC0wLjY4IC0wLjgxLC0xLjY5IC0wLjg3LC0zLjAyIGggNi44NSB2IC0wLjU2IGMgMCwtMi4wMSAtMC40LC0zLjUyIC0xLjIwMDAxLC00LjU4IC0wLjc5LC0xLjA3IC0xLjc2LC0xLjYgLTIuOTQsLTEuNiB6IG0gOS4yMDAwMSwwIGMgLTEuMDgwMDEsMCAtMS45NCwwLjMyIC0yLjU1MDAxLDAuOTYgLTAuNjA5OTksMC42MyAtMC45MTk5OSwxLjQ1IC0wLjkxOTk5LDIuNDcgMCwwLjU5IDAuMSwxLjA5IDAuMzIsMS41NSAwLjIyOTk5LDAuNDYgMC41NDk5OSwwLjg0IDAuOTU5OTksMS4xMiAwLjQxLDAuMjcgMS4yMiwwLjYzIDIuNDMsMS4wMyAwLjgzMDAxLDAuMjcgMS4zNywwLjUgMS41OSwwLjY4IDAuMzIsMC4yNiAwLjQ4MDAxLDAuNjEgMC40ODAwMSwxLjA4IDAsMC41NCAtMC4xOSwxIC0wLjU2LDEuMzUgLTAuMzYwMDEsMC4zNiAtMC44OCwwLjUyIC0xLjU1MDAxLDAuNTIgLTAuNjY5OTksMCAtMS4yMjk5OSwtMC4xOSAtMS42Mjk5OSwtMC42IC0wLjQxLC0wLjQxIC0wLjY3LC0xLjAzIC0wLjc2LC0xLjg3IGwgLTEuNTUwMDEsMC4zMiBjIDAuMzUsMi41NSAxLjYyMDAxLDMuODIgMy44MiwzLjgyIDEuMTgsMCAyLjExMDAxLC0wLjMzIDIuNzkwMDEsLTEuMDMgMC42OCwtMC43MSAxLjA0LC0xLjY1IDEuMDQsLTIuNzkgMCwtMC42MiAtMC4xMSwtMS4xNSAtMC4zMiwtMS42IC0wLjIxMDAxLC0wLjQ0IC0wLjU0MDAxLC0wLjc3IC0wLjkyMDAxLC0xLjAzIC0wLjM3OTk5LC0wLjI2IC0xLjE4LC0wLjYgLTIuNDcsLTEuMDQgLTAuOTMsLTAuMzMgLTEuNTIsLTAuNTcgLTEuNzEsLTAuNzIgLTAuMzIsLTAuMjUgLTAuNDgsLTAuNTkgLTAuNDgsLTEuMDMgMCwtMC40NSAwLjE5LC0wLjgzIDAuNTIsLTEuMTIgMC4zMywtMC4yOCAwLjg0LC0wLjQ0IDEuNTEwMDEsLTAuNDQgMS4xODk5OSwwIDEuODQ5OTksMC42NiAyLDEuOTYgbCAxLjUwOTk5LC0wLjI0IGMgLTAuMTEsLTAuODIgLTAuMjgsLTEuNDcgLTAuNTYsLTEuOTEgLTAuMjcsLTAuNDQgLTAuNjgsLTAuODIgLTEuMTksLTEuMDggLTAuNTIsLTAuMjYgLTEuMTIsLTAuMzYgLTEuNzk5OTksLTAuMzYgeiBtIC0zNS41NCwwLjI0IDMuNDcsMTEuOTEgaCAxLjQ3IGwgMy40Njk5OSwtMTEuOTEgaCAtMS41OTk5OSBsIC0yLjAzLDcuMjkgYyAtMC4yNSwwLjg5IC0wLjQ2LDEuNjUgLTAuNiwyLjI3IC0wLjE3LC0wLjc5IC0wLjMzLC0xLjYyIC0wLjU2LC0yLjQzIGwgLTEuOTkwMDEsLTcuMTMgeiBtIDkuNzYsMCB2IDExLjkxIGggMS41NSB2IC0xMS45MSB6IG0gLTUxLjA4MDAxLDAuMTYgYyAtMS4yMywwIC0yLjIyLDAuNTUgLTMuMDMsMS42MyAtMC44LDEuMDggLTEuMjMsMi42NSAtMS4yMyw0LjcxIDAsMS45OCAwLjQsMy40OSAxLjE5LDQuNTQgMC44LDEuMDUgMS44NiwxLjU5IDMuMTUsMS41OSAxLjAyLDAgMS44NiwtMC4zNSAyLjU1LC0wLjk5IDAuNjksLTAuNjUgMS4xNywtMS42IDEuNDMsLTIuODcgbCAtMS41NSwtMC4yNCBjIC0wLjQ1LDEuNjMgLTEuMjcsMi40MyAtMi40MywyLjQzIC0wLjc0LDAgLTEuMzYsLTAuMzIgLTEuODcsLTAuOTkgLTAuNTIsLTAuNjkgLTAuODEsLTEuNyAtMC44OCwtMy4wMyBoIDYuNzggbCAwLjA0LC0wLjU2IGMgMCwtMi4wMSAtMC40MSwtMy41NiAtMS4yLC00LjYyIC0wLjc5LC0xLjA3IC0xLjc3LC0xLjYgLTIuOTUsLTEuNiB6IG0gLTE3LjQ5LDAuMjggMi43OSwxMS45MSBoIDEuNjMgbCAxLjgzLC05LjE2IDAuMzIsMi4wMyAxLjQ4LDcuMTMgaCAxLjU5IGwgMi44MywtMTEuOTEgaCAtMS40NyBsIC0xLjU2LDYuODkgLTAuNTEsMi4zMSAtMC40OCwtMi4zMSAtMS4zNiwtNi44OSBoIC0xLjU5IGwgLTEuNDQsNi45NyAtMC40OCwyLjQ3IC0wLjU1LC0yLjU1IC0xLjQ0LC02Ljg5IHogbSA5OS4xNzAwMSwwLjEyIHYgMC41NiBoIDEuNTA5OTkgdiAzLjk4IGggMC42IHYgLTMuOTggaCAxLjUyIHYgLTAuNTYgeiBtIDQuMjIsMCB2IDQuNTQgaCAwLjU2IHYgLTMuODYgbCAxLjMxOTk5LDMuODYgaCAwLjU1IGwgMS4zMiwtMy43OCB2IDMuNzggaCAwLjYgdiAtNC41NCBoIC0wLjg0IGwgLTEuMDgsMy4xOSBjIC0wLjExLDAuMzEgLTAuMTgsMC41NCAtMC4yNCwwLjcxIGwgLTAuMjMsLTAuNjggLTEuMDgsLTMuMjIgeiBtIC01NS42NjAwMSwwLjg0IGMgMC43OCwwIDEuNDEsMC4zNyAxLjkxLDEuMTEgMC4zNSwwLjUxIDAuNTcsMS4yOCAwLjY0LDIuMzEgaCAtNS4xNCBjIDAuMDUsLTEuMDQgMC4zNCwtMS44NSAwLjg0LC0yLjQ3IDAuNDksLTAuNjIgMS4wNiwtMC45NSAxLjc1LC0wLjk1IHogbSAzNy4zOCwwIGMgMC43NywwIDEuNDEsMC4zNyAxLjkxLDEuMTEgMC4zNCwwLjUxIDAuNTcsMS4yOCAwLjYzLDIuMzEgaCAtNS4xNCBjIDAuMDUsLTEuMDQgMC4zNSwtMS44NSAwLjg0LC0yLjQ3IDAuNDksLTAuNjIgMS4wNiwtMC45NSAxLjc2LC0wLjk1IHogbSAtNjcuNjIsMC40MyBjIDAuNzYsMCAxLjM4LDAuMzggMS44NywxLjEyIDAuMzQsMC41MSAwLjU3LDEuMjggMC42NCwyLjMxIGggLTUuMDYgYyAwLjA1LC0xLjA1IDAuMzEsLTEuODkgMC44LC0yLjUxIDAuNDgsLTAuNjIgMS4wNiwtMC45MiAxLjc1LC0wLjkyIHogbSA5Ljg4LDAgYyAwLjY5LDAgMS4yOCwwLjM5IDEuNzYsMS4xMiAwLjQ3LDAuNzMgMC42NywxLjg2IDAuNjcsMy40MyAwLDEuNTIgLTAuMjIsMi42NiAtMC43MSwzLjQyIC0wLjQ5LDAuNzcgLTEuMDgsMS4xNiAtMS43MiwxLjE2IC0wLjQ2LDAgLTAuODksLTAuMTYgLTEuMjcsLTAuNDggLTAuMzksLTAuMzIgLTAuNjcsLTAuNzggLTAuODgsLTEuNCAtMC4yMSwtMC42MSAtMC4zMiwtMS41NSAtMC4zMiwtMi43OCAwLC0xLjQ2IDAuMjYsLTIuNTUgMC43NiwtMy4zMSAwLjUsLTAuNzcgMS4wOCwtMS4xNiAxLjcxLC0xLjE2IHoiIHN0eWxlPSJmaWxsOiMyMDFjMWQiIGlua3NjYXBlOmNvbm5lY3Rvci1jdXJ2YXR1cmU9IjAiIGlkPSJwYXRoMzI0Ii8+PHBhdGggZD0ibSAxOC45MSwzMi41MiAtNS45NCwyLjU1IDUuNSwyLjM1IDYuMzcsLTIuMzUgeiBtIC04LjkyOTk5OTksMy4xOCAtMC4yLDExLjQ4IEwgMTguNDcsNTEgViAzOS4wOSBaIE0gMjcuODMsMzUuNyAxOS45OCwzOC42OSB2IDExLjI0IGwgNy44NSwtMy4xOSB6IE0gMzcuMiwwIDMxLjIyLDIuNTUgMzYuNzYsNC45IDQzLjEzLDIuNTUgWiBtIC04LjI5LDMuMzkgdiAxMS40OCBsIDcuNDEsMi4xNSAwLjI0LC0xMC40NCB6IE0gNDUuNDgsNC4wMyAzOC40Nyw3LjAyMDAwMDEgViAxOC4yOSBMIDQ1LjQ4LDE1LjEgWiBNIDkuMTMwMDAwMSwxNi4xNSAzLjE5LDE4LjcgOC42OTAwMDAxLDIxLjA2IDE1LjA2LDE4LjcgWiBNIDAuMiwxOS4zNCAwLDMwLjgyIDguNjkwMDAwMSwzNC42NCBWIDIyLjczIFogbSAxNy44NSwwIC03Ljg1LDIuOTkgdiAxMS4yMyBsIDcuODUsLTMuMTggeiBtIDEwLjIsLTMuNjEgLTUuOTQsMi41NSA1LjUsMi4zNSA2LjM4LC0yLjM1IHogbSAtOC45MywzLjE5IC0wLjE5LDExLjQ3IDguNjgsMy44MyBWIDIyLjMgWiBtIDE3Ljg2LDAgLTcuODYsMi45OSB2IDExLjIzIGwgNy44NiwtMy4xOCB6IE0gNTUuODgsMCA0OS45NCwyLjU1IDU1LjQ0LDQuOSA2MS44MSwyLjU1IFogbSAtOC45MywzLjE5IC0wLjIsMTEuNDggOC42OSwzLjgyIFYgNi41OCBaIG0gMTcuODUsMCAtNy44NSwyLjk5IHYgMTEuMjQgbCA3Ljg1LC0zLjE5IHoiIHN0eWxlPSJmaWxsOiNmN2E4MGQiIGlua3NjYXBlOmNvbm5lY3Rvci1jdXJ2YXR1cmU9IjAiIGlkPSJwYXRoMzMyIi8+JiN4YTs8L3N2Zz4=;" parent="1" vertex="1">
          <mxGeometry x="420" y="238.5" width="69" height="26" as="geometry"/>
        </mxCell>
        <mxCell id="s3V0FGwePLYo2Qi6QxZB-3" value="" style="outlineConnect=0;dashed=0;verticalLabelPosition=bottom;verticalAlign=top;align=center;html=1;shape=mxgraph.aws3.sns;fillColor=#D9A741;gradientColor=none;" parent="1" vertex="1">
          <mxGeometry x="613.5" y="200.5" width="76.5" height="76.5" as="geometry"/>
        </mxCell>
        <mxCell id="s3V0FGwePLYo2Qi6QxZB-4" value="Amazon SNS" style="text;html=1;resizable=0;points=[];autosize=1;align=left;verticalAlign=top;spacingTop=-4;" parent="1" vertex="1">
          <mxGeometry x="613.5" y="283" width="90" height="20" as="geometry"/>
        </mxCell>
        <mxCell id="s3V0FGwePLYo2Qi6QxZB-5" style="edgeStyle=orthogonalEdgeStyle;rounded=0;orthogonalLoop=1;jettySize=auto;html=1;strokeColor=#808080;" parent="1" edge="1">
          <mxGeometry relative="1" as="geometry">
            <mxPoint x="450" y="270" as="sourcePoint"/>
            <mxPoint x="550" y="360" as="targetPoint"/>
            <Array as="points">
              <mxPoint x="450" y="360"/>
            </Array>
          </mxGeometry>
        </mxCell>
        <mxCell id="s3V0FGwePLYo2Qi6QxZB-7" value="" style="outlineConnect=0;dashed=0;verticalLabelPosition=bottom;verticalAlign=top;align=center;html=1;shape=mxgraph.aws3.s3;fillColor=#E05243;gradientColor=none;" parent="1" vertex="1">
          <mxGeometry x="552.5" y="320" width="76.5" height="93" as="geometry"/>
        </mxCell>
        <mxCell id="s3V0FGwePLYo2Qi6QxZB-9" value="Amazon S3" style="text;html=1;resizable=0;points=[];autosize=1;align=left;verticalAlign=top;spacingTop=-4;" parent="1" vertex="1">
          <mxGeometry x="552.5" y="420" width="80" height="20" as="geometry"/>
        </mxCell>
        <mxCell id="s3V0FGwePLYo2Qi6QxZB-12" value="Camera" style="outlineConnect=0;fontColor=#232F3E;gradientColor=none;strokeColor=#232F3E;fillColor=#ffffff;dashed=0;verticalLabelPosition=bottom;verticalAlign=top;align=center;html=1;fontSize=12;fontStyle=0;aspect=fixed;shape=mxgraph.aws4.resourceIcon;resIcon=mxgraph.aws4.camera;" parent="1" vertex="1">
          <mxGeometry x="184.5" y="102.5" width="35" height="35" as="geometry"/>
        </mxCell>
        <mxCell id="s3V0FGwePLYo2Qi6QxZB-13" style="edgeStyle=elbowEdgeStyle;rounded=0;orthogonalLoop=1;jettySize=auto;html=1;strokeColor=#808080;elbow=vertical;exitX=0.371;exitY=0.01;exitDx=0;exitDy=0;exitPerimeter=0;" parent="1" source="SZY12_XKgGBlkoAp8IEY-1" edge="1">
          <mxGeometry relative="1" as="geometry">
            <mxPoint x="207" y="160" as="targetPoint"/>
            <mxPoint x="192" y="220" as="sourcePoint"/>
            <Array as="points"/>
          </mxGeometry>
        </mxCell>
        <mxCell id="s3V0FGwePLYo2Qi6QxZB-14" style="edgeStyle=elbowEdgeStyle;rounded=0;orthogonalLoop=1;jettySize=auto;html=1;strokeColor=#808080;elbow=vertical;" parent="1" edge="1">
          <mxGeometry relative="1" as="geometry">
            <mxPoint x="870" y="245" as="targetPoint"/>
            <mxPoint x="690" y="245" as="sourcePoint"/>
          </mxGeometry>
        </mxCell>
        <mxCell id="s3V0FGwePLYo2Qi6QxZB-19" value="&lt;span style=&quot;text-align: left&quot;&gt;Fire&amp;nbsp;&lt;/span&gt;&lt;span style=&quot;text-align: left&quot;&gt;above the threshold&amp;nbsp;&lt;/span&gt;&lt;span style=&quot;text-align: left&quot;&gt;&lt;br&gt;Detected&amp;nbsp;&lt;/span&gt;&lt;br style=&quot;text-align: left&quot;&gt;&lt;span style=&quot;text-align: left&quot;&gt;in the Room&lt;br&gt;&lt;/span&gt;" style="text;html=1;resizable=0;points=[];autosize=1;align=center;verticalAlign=top;spacingTop=-4;rotation=0;" parent="1" vertex="1">
          <mxGeometry x="34.5" y="225.5" width="150" height="40" as="geometry"/>
        </mxCell>
        <mxCell id="s3V0FGwePLYo2Qi6QxZB-20" value="Sends data to AWS" style="text;html=1;resizable=0;points=[];autosize=1;align=left;verticalAlign=top;spacingTop=-4;" parent="1" vertex="1">
          <mxGeometry x="264.5" y="263" width="120" height="20" as="geometry"/>
        </mxCell>
        <mxCell id="s3V0FGwePLYo2Qi6QxZB-23" value="&lt;p style=&quot;line-height: 120%&quot;&gt;Stores fire&lt;br&gt;image&amp;nbsp;&lt;/p&gt;" style="text;html=1;resizable=0;points=[];autosize=1;align=center;verticalAlign=top;spacingTop=-4;" parent="1" vertex="1">
          <mxGeometry x="425" y="350" width="70" height="50" as="geometry"/>
        </mxCell>
        <mxCell id="s3V0FGwePLYo2Qi6QxZB-27" value="sends notification&lt;br&gt;to subscribers&lt;br&gt;(sms/email)&lt;br&gt;with link to the image &lt;br&gt;stored&amp;nbsp;in S3 Bucket" style="text;html=1;resizable=0;points=[];autosize=1;align=center;verticalAlign=top;spacingTop=-4;" parent="1" vertex="1">
          <mxGeometry x="720" y="250" width="130" height="70" as="geometry"/>
        </mxCell>
        <mxCell id="s3V0FGwePLYo2Qi6QxZB-28" value="response to event&lt;br&gt;by sending&lt;br&gt;notification" style="text;html=1;resizable=0;points=[];autosize=1;align=center;verticalAlign=top;spacingTop=-4;" parent="1" vertex="1">
          <mxGeometry x="490.5" y="198.5" width="110" height="40" as="geometry"/>
        </mxCell>
        <mxCell id="s3V0FGwePLYo2Qi6QxZB-29" value="" style="html=1;strokeWidth=1;shadow=0;dashed=0;shape=mxgraph.ios7.misc.wifi;fillColor=#007AFF;strokeColor=none;buttonText=;strokeColor2=#222222;fontColor=#222222;fontSize=8;verticalLabelPosition=bottom;verticalAlign=top;align=center;" parent="1" vertex="1">
          <mxGeometry x="184" y="224" width="15" height="15" as="geometry"/>
        </mxCell>
        <mxCell id="s3V0FGwePLYo2Qi6QxZB-33" value="" style="group" parent="1" vertex="1" connectable="0">
          <mxGeometry x="876" y="200.5" width="50" height="109" as="geometry"/>
        </mxCell>
        <mxCell id="s3V0FGwePLYo2Qi6QxZB-30" value="" style="verticalLabelPosition=bottom;verticalAlign=top;html=1;shadow=0;dashed=0;strokeWidth=1;shape=mxgraph.android.phone2;fillColor=#ffffff;strokeColor=#c0c0c0;" parent="s3V0FGwePLYo2Qi6QxZB-33" vertex="1">
          <mxGeometry width="50" height="109" as="geometry"/>
        </mxCell>
        <mxCell id="s3V0FGwePLYo2Qi6QxZB-31" value="" style="shape=image;verticalLabelPosition=bottom;labelBackgroundColor=#ffffff;verticalAlign=top;aspect=fixed;imageAspect=0;image=data:image/png,iVBORw0KGgoAAAANSUhEUgAAAPAAAAIICAYAAABQC2PPAAAgAElEQVR4XuxdB3hVVbNd6QkhPRB67yC996b03qVLVVERQUQRRcRfUaSIgPQmTZSOCAjSpPfeCT1AQkJCSM/71sQbEgjk3hBecmD29/3vSe4+58xZs9eZ2XvPnrEKDw+PhTZFQBEwJAJWSmBD6k2FVgQEASWwDgRFwMAIKIENrDwVXRFQAusYUAQMjIAS2MDKU9EVgecicGxsLA4GHceqOxtxK+IOgqMeICwmHNGIRixSZ3HbClawgTUcrR2Q0cYZWRwyoaFXbVT2KANrK2vVoCLwSiOQYgJHxkRh+a31WOi3EjGISRZEa1ihaMaCuBHuh3uRQcn2T65Da++GeDN7S9hb2yXXVX9XBF5aBFJM4FW3NmHGzUVmA1PFvSxGFBqITXe248dLM1LFQnf1aY122ZqYLYN2VAReNgRSROComCj0Ov4x7kWbb0k7Z2+FrjlaIzo2Bl+dHY89gYeeG0s3GxfMKv497GzUCj83mHoDQyKQIgLvuXcIoy9PsuiFC2TIg4klRnLrWQi8O/CgRdc/rfOgnH1Q27tyqtxLb6IImItAUFAQ7t+/Dy8vLzg5OcHKyuqJS6OjoxEQEIDw8HBwvehZzdbWFi4uLsiYMaO5Iki/FBF44fWVWHx7lUUPsrOyxcTiXyG7Uxb0OjwYdyIDLLr+aZ0bedbG27m7psq99CaKABGIiorCyZMnBYySJUvGgxIYGIjly5fj559/xqlTpxATEwMbGxtUqVIF77zzDho3bgwHBwfpHxkZiZ07d8DbLRxO9jGwsrJGrF0WwNolSZD5TD8/P+TJkwe5cuUyWxEpIvC0Kwuxxv9vsx9i6pjR2hlzyozFhQe+GHr6fxZfn9QF1VzLY2j+t1PlXnqTVxuBxYsXgyTt1auXEJgWtGzZsgJKWFgYypcvj3PnzgnBevfujfz58+PEiRNCaFrkOnXqYP369dL/9u3buHn1BMo7tIVVTIj8Lca5OqLyP5s3Bw8ejH+mOdpIEYHX396KydfnmXP/J/qUdX0NXxb+EGdDLuKLsz8iKjYKORyz4ELolRTdr3uWNmiTtXGKrtWLFIGECJQqVQpnzpxBcHDwEwSmdezSpQtGjRoFd3d3zJo1C2fPnkW5cuWEzFu3bsXMmTOxYcMGcadv3LiBIP+zKGnVAlaxYfKYWLu8iCxy+pmgHzhwQNxtfizMaSki8K2wO3j31HBEIsqcZzzRp6pHeXyUr49sJ9lZ28HDzg3rb/+DJTdWwz/yntn3tIUNJhb+CjkyZDH7Gu2oCCREoEmTJtixY4dYULrLJHBISMgTBBYCxsbi999/R/fu3eHh4YGsWbPi4sWLsLa2xqpVq1C5cuX4ufDNmzcRePeMxQSmBb506RLatGljlqJSRGDe+fuLv2B70F6zHpJUJy9bD3xV5CPkyZATNv8FZPx2Yw1mXl1i9j0rupTG8ALvmd1fOyoCROD9998Xa0my9OnTB3v27JGFpuQIzGtv3bqF4cOHY/To0XJNhgwZMGjQIEyZMgXOzs7xAIsFvnsWJa0TWuB8iCxyKlkL7O3tjdy5c5ulrBQT+G74PXx8djTuRplvMR+XyN7KDqVci6J9tmZwtc2IYae/Q0BkoFmCe9i44ftCnyGzo5dZ/bWTImBCoH379li5ciX27t2L9957zyICmyxx06ZNsWvXLrRu3RrTp09/YhXa398fF84dRVWPD2AdcQ6xsEa097uIyTrmmYo4dOgQypQpY7ayUkxgPiEgIhDzrv+O7YF7U+xOmy3pfx1tYYtKrqXRPXtbZHHMZOnl2l8REOu7ceNGjB07FgsWLMDx48cxf/58fPbZZ2Jhp02bhqtXrwopn2YJaWF//fVXseamleeE0HKFmvflVhMXw5JrdMPZihcvDk9Pz+S6x//+XAQ23cUv7A7OPLiImxF3EBR5H+GxEakSacX7MxaaltrNzhVZ7TOhkHNeZHHInOS+m9lvrR0VgZcEgVQh8EuChb6GImA4BJTAhlOZCqwIPEJACayjQREwMAJKYAMrT0VXBJTAOgYUAQMjoAQ2sPJUdEVACaxjQBEwMAJKYAMrT0VXBJTAOgYUAQMjoAQ2sPIeFz3ofgiuXr+Nu/6BeBAahrCwcMkN6uToAOcMjvDydEfO7Jnh5uqskWwvid6VwAZXJI+4hTx4iFNnL+PK1VtxcbdPpHd5lM7FxtoGObL7oFjhPHDJmEGJbHD9K4ENrsBrN+/g3z1HEBOTXB7uhL9bCXGrVSqFHNn0QIiRh4DFBD57F+i8zAYj6sSgWeHkBo2RoUnfstPyXvS9gQOHTyEq6tmnXUzp1hJrKxZMpFamZGEUyJtDLXH6VvdTpbOIwHuvAQ3n2YIf+zVdolE9d9yQeBgJTNtvjV+PWuPUHSAi+skMfSYJ+Etu91i8USAGn9SIQXZXgyKXxmLfuXsPm7ftS0ReE0GJsY2tDbw83CTxWkDgfcREx/Bo1xPNxtoatauXRxYfPVedxipN0ePNJvAxP6DOLFtERAO/dYhCg4Jxz4uMBlovssGGC5aXOfFwisXO3lHIb/7xxxS95Mt2ERen1m7YidCHD594NZ4rzZsnOyqWLSGLV2yhD8Nw8MgpnL94VQj9eMvg5IjGr1eDk5PjywbVS/8+ZhH48j2g0jRbsbTbe0WhZJZH6yR9Vlpj3mGS98nPu7UV4GQLPIh8hKOHE3AvwbgrnSUGe/olf+D5pdeEBS94+txl7D1wPMkr6tSogHx5nnSJ6XJv33UQZ8/7Jnld2VJFUaJofguk0K7pAYFkCUyXuP5sW4REAvNaR6NF0UczqTsPgALjbREWZQUHG2BUfaBLGSDbt0D13EClnHFk9XQCpuwFfmkB/HESqJkHGLj20ev/2jYKbYvrfNqcAcH57roN23Ev8P5/3f/7cFoBGTI4om3z+klmiGDn8xevYMu2pPKYWcHNzQVN3qgOOztbc8TQPukEgWcS+OAN4I25tuImz2kdjVbFEpPs5G2g7BRbxMIKznaAtzOwsitQ+qc4kjrbA/fDgMo5gUm7AZ+MwJUg4PuGwJC49LnS2hSLwcJ2aoXNGRO3/PyxftOO/zL9J/Z6XFyc0bZFfdjb2yd5q8u+1/HX3/8yv2KC3x/do0G9qsiWVVelzdFDeunzTALPPGiFd1fbwMsJOPB2FLI8llT+yC2g4i/8YscNAv7fQ+8BZX4CSmcFvn4d8A8Ftl0CZhyIe+XOpeKIPW3fIwhq5YnBhu5KYHMGxcGjp3DocMLMhkQ9jpAODvbo2KYRMmRwSvJWJ06dx7ad+5P4Le4epUoURvmyxc0RQ/ukEwSeSeCoGGDRUSv0XWWDvO6x+OetaGROULrlvD9Q8mdbRMc+SeBhtYFv/ol7yzENgY/XA00KQa6f/VhZpHcrRuPHRsmXKE0nmKWpGBu37ILvlZvxMjBmw1R2hy50u5YN4OycNIGPnTiD7f+awH/kegt9Y4GCBXKhVjXzEoqnKQj68Ef6Dw8Pf+bkk7sPP+60wsh/bFDEO1YspWeGuOsfRACFJ9jiTugjN2xGK6D3cqBMVqBFUSAsGuAi2NozwKL2wK6rQHgU8MOOuHvYWcdid98olPBRrZiDwIo1f4NbSEk1Dw83IfDT5rGXr1zH2vVbn/qYPLmz4/U6VcwRQ/ukEwSSXcQyyTnuXysM/9sGPs7A1l5RyOkW98umC1Zos9hGFrJS0j6oEo0xb6j1NRe7dX9tw9XrtxJ1N0VOWllbo12rBsjs/eSeLreP/t19CIeOJp1YnPcokC836taqZK4o2i8dIGA2gSnr7INW6L/aFp5OsTg+IApe/1nipcet0PV3y1cv+5SPxqQmSl5LxsHufUdw+OjpR7t2sdzSexRr5ZPZC+1aNXoisur8RV/8uWFbvLstz3w0fZb+JUsURpWKpSwRR/umMQIWEZhz4un7rDB4gw0mNo5Br3KPyOcbGGeNd1+zkv3ipzXmry6eKRZ188aibDbAxvL4jzSGLG0fz5XkPzc+IqLMgSnSfxMhV9eM6NaphYRJmhr3gA8ePoHt/3IBi3HQcb+Y5s6mf79etxoK5DO/tGXaIqFPl29wcnPgx2Gi0hmVVdgbcLDc6Crqz4nAw7AwLF72J0JDQ5O8E+vQ1q9TBcWLFoy3wjyhtHjZWty+45/gmgTml0cOnZzQsW1jMCpLm3EQsJjAxnm1l1fSf/ccwoFDJ8TsJqwMb7KolSuWQtVKZeN/i4yKwqx5vyEkJPSx/o+ip+k+16pe4eUF7SV9MyWwARXLKKyFS1fH19xJSGL+d7PGdVEwf574N+MC1oLFq3Dnrv9/ASCJX5pV5ju0aQxvLw8DovFqi6wENqD+Oac9efo8Nm/dLYcTbG1skCtnNuTLmwvZs/kIEU3FsuLmurF4EBqKGzdv4+q1m7hw6QqCgoLlzUn4WjUqomTxwnqk0IBjQQlsQKVRZB7g37JtNy5euoKmDesgd+4cZr8JSX/46Cls3b4HBfPnRr061WCjq4lm45eeOiqB05M2UiALSXzh4hV0aNsEHu5uiSxvUrcjeQOD7mPp7+uQN08O1KlZOQVP1UvSCwJK4PSiiRTKER0TA98r17Fx8w54e3micoXSyJkja6JtJN46KioK12/4YdfeQzIXrlerCvLmzQUe6NdmXASUwMbVXSLJeczw1JnzOHv+Eu76B8DF2RkZMsRF2vDgf3BwCLy8PFCoQF4ULZwfdnZ2L8mbv9qvoQR+CfUvaXTuBeL2nQBZwMqcyUtSyiZc2HoJX/uVfCUl8Cupdn3plwUBJfDLokl9j1cSASXwK6l2femXBQElsEE0yVXk27dvS7ocDw8P3LlzRyRnIIaPjw9CQkJw//59eHt7P5FS58GDBwgMDIS7uzucnZ0RERGBu3fvyn+7uf13LtQgOKiYiRFQAhtkRMyZMwcFChTA4sWL8d577wkB2fjvb7/9Fi1btsTIkSOxbds2fPLJJ/FvRbI2atQIY8aMwapVq/Dll1+idevW+Oijj7Bs2TKMHz9e+vrd8UdERCRyZs9iEERUTPmAW3oaSWFLGwRoQc+ePYu1a9diwIAByJQpE3x9fbF161aUL18e58+fR/PmzfHdd99h6NCh8ULScpPw9evXx9WrV/HBBx/Az88PV65cwZYtW+L73g8OwV9b/kXFsq8hV/YsGlaZNmq2+KlKYIshS5sLuB1E8pJ0PXv2RLFixdC7d2/88MMPuH79OgICAlCrVi18//336NOnD6ZOnSrpZXv16iX9u3btih07dsjvdLt5r82bN2P06NFwdIw7QugfEIgFv69Fz44t4OqSIPlZ2ryyPtUMBJTAZoCUHrrQctINXr9+vZwFbtKkiZC5RYsWMh8maekSf/bZZ2KFTe3y5cv4+uuvMWPGDPlt+PDhqFmzJnbv3o1JkyahW7duMqeWD8TG7fDJ7IkKpUukh1dWGcxAQAlsBkjpoQvnvJzfctGJlpZusGlRiuQ7fPiwWOJy5coha9as8SLzt3379uHWrVvInTs3SpUqhYsXL+LIkSPInj07KlasKH2vXL+JW7fvomKZ19LD66oMZiKgBDYTKO2mCKRHBJTA6VErKpMiYCYCSmAzgdJuikB6REAJnB61ojIpAmYioAQ2EyjtpgikRwSUwOlRKyqTImAmAkpgM4HSbopAekTA6s6dO1pZOz1qRmVSBMxAwCqWO/3aFAFFwJAIKIENqTYVWhGIQ0AJrCNBETAwAkpgAytPRVcElMA6BhQBAyOgBDaw8lR0RUAJrGNAETAwAkrgdKI8pr5hTipTc3R0MDsROxO5h4WFw8nJUbJt8F7cHdTqC+lEuS9QDCXwCwTXklufPn0GW7Zsk4yRTIXTtWsnyRqZVGP6nH37DqJBg/ryc2BgEGbPnodevbrD1dUVmzf/I5kpq1evaokI2teACCiB05HSHj58iLVr16Nt21a4fNkXx46dEGtat25tIWWtWjVw8eJlKex9+PARtGvXGp6eHkLglStXo1y5ssibNzcWLfoNRYsWQfHiRbB581Z5w3r16sDf3x+nTp2RFLTNmjXG1q3b4eDgiOzZs4JFvk+ePA3K0LRpI5w5cw5XrlwFPYHXXishaXxOnz6LyMhI+Z0fCG1pj4ASOO11EC9BQgKvWLEa+fPnEyKVLFlc3Os9e/ahTZuWCA8Pxz//bEeHDm3iLfCmTZulmFnOnNml6PeDB6FCft7T09NT+jk5OeH69RvIli0rChUqIB+LPHlyI1eunHLNrVt+OHv2HGrUqIYdO/5F69Yt8Pff/6BAgXw4ePAwChYsICSvUqWiXKMt7RFQAqe9DpIk8F9/bULVqpXE8tEtPnToqFjE6tWriPX766+N6NSpA2xtbcQCk8AkFS13/fp1xFrSqrKgWaFCBaWANysY0npv2LAJNWtWlxKktMbHj5+UexYrVgQnTpxCuXJl8O+/u6XPtm07UKZMKbHcdMkfPAiBh4cnHBzUAqeHoaMETg9a+E8GWtmTJ0+hdOmSQqxDh44IeekWnzt3ASVLlhCLXKRIIfmNxHRzcxUry7+TgP7+AXINqzjkzJkDx44dR2joQ3Gvw8PDcOTIMZlblyr1Gs6cOYu7dwPkefyNz/D29hILzQh5X98rUu0hR47skrmSbjv/P5/Dj4O2tEdACZz2OkiXEtCC37x5E5GRUahRo6q439rSHwJK4PSnE5VIETAbASWw2VClfkcuHPn6XkVMTCysrCDzyuzZsyX5IC5a1axZLdm9Ye7/ck84LCwMHh7u8v+Dgu7Dxyez7A2zcV7NxSwuYHGvODw8ApcuXZbVaLrfbFxtvnr1hsydeS3n2lzkonzca6Zbzvm0i1ZwSP2BYcEdlcAWgJXaXUmogIB72LVrj8w78+XLK3PLmzdvIW/ePLCzs4Wf320h3vr1G2Vv2N//HoKCAmWFmiTMksVHFqc4h2Wid859z5+/KItS+fLlwbFjJ4WwjRq9gd2798qW0M6du2QlmdtUFSqUw9atO1CpUgVcu3ZNtp/YuDC2d+8+VK5cCdu375SV6SVLfsObb3aQOTT3rH18MqFYsaKpDYvezwIElMAWgPWium7cuFmsIbeAVq1ah6JFCwsJmzZtiJUr16BAgfzYv/8gevToIotXtHxc5LKxsUWuXDlw714gChcuCBcXF9kOImG5qMXV44cPw2QlmQTmthL7stwon7dv3wEh4MGDh+Rafih4jYnA+/cfQLVqVWQvmSvQJD6fkzVrFtleyp8/rxL4RQ0KM++rBDYTqBfZzURguqpc6aW1W758lfx/bh1xlXj27Pno0qUjNm3aIm4x3e7GjRsI+bjy3KpV83gRSW4SmNtB3A82EZhWleRnmZbChQth7979KFGiGI4ePYHKlSvg8OGj8iwTgdesWSdbUyQ5C6CR8Hx25syZZLWaHwK1wC9yZCR/byVw8hi98B4mApMsCxcukW0bkqNFi6aYO3cBsmXLJu5yq1bNxJXOmNEZoaFhaN++NX7/fYX8u0GD15Ml8J07d+Hu7oYlS35H5coVpV5SlSqVsXz5SlSoUBbHj59CkyYN4wlMa1+nTk35d0jIAxw4cFBcd+4bsz/deyXwCx8ez3yAEjht8Zenk6xcTOK8lRaO/2YRMwZaBAeHAIgVi+vq6iILUlxQ4r+jo6Pw558b0bDh6xJSaWp0o7kwxcMNcS71QyG5qfE37u/yGs65uWBF68z7Mw6bjZaai2HOzhnk33EHJsJkO4l/t7e3E5fc1D8dwPhKiqAENrDaGdtMomXOnNnAb6GiPw8CSuDnQU+vVQTSGAElcBorQB+vCDwPAkrg50FPr1UE0hgBJXAaK0Afrwg8DwJK4OdBT69VBNIYgVQhcFz8bQQePgxHdHSMRPRoxZY01mwaPZ4x3YyVtra2kmweTk7m5/ZKI5EN/djnIjBJGhISigcP4iKDtCkCjyNAMpPErq4Zkj2IoehZjkCKCUxLGxBwX86LalMEkkOAltnb210OaGhLPQRSRGBa3jt3AuUUjDZFwBIEMmd2lwgzbamDgMUEJnnv3QuWOW9atdjICFjduw3rB0Gwio2BVQZnxGRwRaxjRsTaOXASllai6XOTQYAWOFMmd8UplRCwmMDM23T3blAqPd7y28Q+uA+rUR/AOuIhYh8+hD0PqTvYItrOHvYxVoht2h6hdVophy2H9v/tCheXDMiY0UkWu7Q9HwIWEZjW9/bte7LS/KzG86gMkjcFul++fAn79+9F27YdzJKW8b3MppiUgqNuXQMGdIJToSKI8L0MRwc72Bcqi+ByVRG9fQ7cMmRC8NBJTx0cvDeTwGXMmDFelh07tiNr1qzIn7/AM+VbvHghateugyxZspr1Hk/rxOTtPBzAI3psxIvvy3/HZcK4gmvXrqJkyZJwdXWX33j4YPHiX9G379vP9eynXUx51q1bg2PHjmLYsOEv5BmmmzLLR6ZMHrJSre35ELCIwJzzksDJtebNGyFfvvwYP36SdN25cwdmzvwFs2bNT+5S+X306JHo0+ftJIP0o65ewsOB3WBb63VkzJwDTu4ewKlDCHXJDDv/C7APv4Pgz+c/1Y2eP38OvvlmFA4fPhn/gZkwYSxKliyNOnXqPVM+nscdOnQYXnst7tB7Stvvvy/FpUsXMXjwJwgMDESHDq0xffpseHl5yRHB4sVLoFKlyliyZBEKFy6CUaP+h5s3b+DNN9thy5adKX3sM6/bvftfjB37PSZMmIRs2bK/kGckvKnOhVMHYosIHB4eCX//Z7vPvr6XMXnyTzJAly5d/gSBjx8/ho0b/xIL+OabXeDsnFG+/By8mzdvwhtvNMJnnw1FzZq10aFDpyesYvS1y4ia+gO8K1RFxpoNEBsRidBlM3Bu2xZERz1AgVzeCB27CrC2fgKhuKoCb6BUqTIoW7YcOnbsLH0SEvivv/5E9uw5UKBAQcydO0ssX9269VCuXAU5UN+x45s4efKEyNupUxc5XvfPP5uxe/cu+PhkQadOb2LDhr9QoUJFIQKP4C1cOB89evSK30ZZtmwpLl++iJ49e6N9+1YYP/5nvPZaSXmen58fhgwZCisra9lLb9iwHkaN+gY5c+aKJ/CNGzewfv06dO3aHbt27cSuXf9KOp1OnTrLkcSlS5dIMndiXbFiJdStG1eCZfv2rdKX92rTpl18dQV6BIMGvS8669DhTXTp0g38yJw7d04+IC1atJKFpwsXzmP16hWwt3dA27btkTmzD+7cuQ2+D7ElnuaejHJ3z4gMGeI8EG0pR8AiAvMcaEBA8FOfxgE3ZMhANGzYRAZ5zZq1ULp02XgLPGHCz+jevTM++eQzXLx4Adu3b8OkSVNkYHp6eqNz564oVKgQBg8ehJ49e6FMmbJwdXVL9Dyr675w2bwOGeo2g3Xxwoi9F4iIvftx7tg+WJ04glyhdxA8aRlg92TicVoxfhw+/3wkhg79KP4DQwKXKFFSXNnNmzdi7NiJeO+9/qhWrYYM4IkTx2Hu3IVC4EyZMqFXrz74+eefUL16DVStWl0G/8iRo0Hy3717B/Xq1cfVq1fRq1dfGfSzZk3H6NHfxb8HB/yhQwcEo6+//h+KF39NfmvZsgnGjfsJefPmi+87btz3AKzRsWMnwYkfxY8+GogRI76Et3dmfPzxh3j77fdkinLvXgD69OmPihXLYPjwL1GkSBEMHz4M69dvEqwpx9Chn+HXX+ejSJGi6NathzwnJiYa06f/ggMH9mPIkE9w6tQJ7N+/Tz5QX3wxHAMHDkKOHDnRokVjkY8fmTVrVmL+/MVo2rQBevfuCzc3d3z44XvYunWXnGVOrmXM6AhX10fTmOT66+9JI2ARgRlpxRXop7WQkGDUq1cL//yzE+fPn8O77/YVhf77705xoatUqYb794PEIvAwer9+fbBhw2YMHjwQs2cviL8tB8LHHw9D1qxPZmi0unwWGcePhlOLjrDJVwixkVG48O0wbPK9hGrWVsiTKRtCZiwFHOMOoidsEyb8iAoVKqFq1Wro2bOLuPScZ5PAHJRMNTN16gyxlB988C5sbe0wZMjHyJIlTg4S+MMPB6NcufK4ceO6kHj06G/FUp4/fxb79u3FkiWLsXz5anTu3B6LFi3Dl19+jj59+olVNzUSmKRv2bK1/H3o0E/lpxo1KmHhwt/EQpranDkzceWKrxCzY8d2Et00bdos5M6d5z/yxcjH8Pr1a+D04Pvvx6FRo9exZcsO8Q6++260WNX33ntbvIdixYrLdWPGfCs1lEyNXtDWrf/gu+9+kD/Rczh37gzWrl0t3khsrBWCggLQu3f/+GtiY2PQt28vvPPOAPnbiBGfyceZH77kmrOzI9zclMDJ4ZTc76lK4MOHD2HYsMEoVqyEfNXXrl0jA+ny5ctCYFpUVtZLqOBq1arj3Xf7JZofP4vA1r5nEDb2c/i83gax9wIAr0y4sWAq4HcTsdZ2sM+cHbbTFsIqY2Ir8PBhKCpXLideAV1AkqJWrToYMOADIfDZs2ewd+8eLFnyh8zfIyMjsGfPbmzdukWs0fLla4TApjkwXcfx48eiefOW+PHH78WdZW6qP/5YJgTu2/ctWXDih4AYmBasqBAS+MSJYxgyZBiaNHkDX345SmR5552+6NatJypXrhKvt/79+6B69eqoV+911K9fS6YW9AoGDvxIXOI5c2bJh4BJ6RYsmCsEbtKkATZv3i7P/OGH79C6dVu5d/PmrcTDYXNyygBi/ziBv/32e3z99ZfijdSuXReHDh1EgQIFJPsGXW3KZ2rMhNmrVw/06PFW/N84PaGXklxTAieHkHm/pxqBaYXeequrDErTV3727BniTvn4ZBUC03XlAhXdTSZeW7mS7uDH6NOnRyICDxs2BPXqvYEaNWo+kbIl6vxxBE75DplsHGHjex6OGZwQFROLgNt+iI22QnCW7PCeOAe27nEFvUxt587t+Omn8WLhaGE5V69XryaOHTuNadOmyK7LqaUAACAASURBVCIWi4NNmjQBP//8CyZPnoSmTZvLYKT1ouuaFIE5RfD1vSTz2UWLfsXGjRuEwNu2bcXYsd+JxR8xYmQiWUxzYC5iMatGx45tMHnyNJFrwIB++Prrb5E7d15xs8eOHSPPZk0iutDr129G//69Zf3g3Lmzkn6Hz+aceNOm9Rg3btITBOZ8l+sOV65cwQcfDBJvgfmwWrWKK47GZrLA//vfGJmX857ly1cAddG4cVMULlxUcGByPT5z6tSfMWnSVPkA0WpzqjNt2lR88MGHyJQp+QwhSmDzCJpcr1QjMN3PLl06YNkyJllzkeeS1FQ657NLlizEmDHj8Ntvi/Hjjz/INtOsWXNRqFARDBnyoVgOUztz5jT69OmJkSO/fmJlOOjscVwa9xU8bt+Ed2gwPGytEQ5bXA8Lw00rB4TnyI3yP06D42ME/vnnibIQZbJulK116+b44Ydx4joWLVpUXPwpUyYhOPg+Wrduh969e8iWU9++/WU+S8+gX793ZP7o738X/ED17t0P3bu/ibt3/aUPF5WmTZspi1CVK5fFhg3/xCdLN73fn3+ula0i05YQCc259+TJ07Fp0wZ8+eVwSSLHhTLOM5nU7vZtP7HmdMvpLnfq1A7Llq3EBx+8I8T88ceJWLduNQYN+lg+pPxQcRuPpGrUqLG45WPGfIPfflsiU5Pp0+fAx8cnHnPTQhxd4DNnTuHtt/vK9bwfvRGSmLJxTkw3ns+jtT127Ag+/PB9hIY+kPk1F7zMaUpgc1BKvk+qETj5Rz3qwT1Hzj2ftZFvOs30eB8/vxs4d3AXsHcXAg7sRWTwfcDKGjaeXogpVhJ3M2VDl179kSFD0sWxLZWTciRXyMt0+ooW1PTh+vffHeLecnvI0kZ3lWsEdPWTC3bgs4lncjKaZHjWHntCOZ+mI/6dzfSuce8bI4dZnrZ3n9T7K4EtHRVJ908TAj+P6JxbX79+BX63byIwwB8hQUEICw+Hta09vDNlRvHipWR7I7mB/zwyJHctLda4cWNl0ShXrtzJdX8lf1cCp47aDUfgx61EdHQkACtZMU5L0qaOOl6duyiBU0fXhiZwSiF4mnue0vvpdZYjoAS2HLOkrnhhBPbzuyXbQ7/9tiLNLSMDMd5//8P49+ciEreNuCL7MjZufZUvX1GKkKXXpgROHc28MAJzm6ZqVVa8u50kgRkIwa2Pt97qY9GbcPWWQRD8MJjb3n//bUycOCW+O/eAuX3DfemXsXG7iav6CYNH0tt7KoFTRyOpSmBT3C9PHzHEsFev7kLgoKAgLFw4D3fu3EGzZi1lYHG/9fTpk7LF1KhRU/AanvbhXixDKr29M0l/nsBh0AT3MnmIYMSIT7FixR9499330b//uzh16qRsjXh7e8veqIeHJxgRtnDhAimX2a/f2xKNlJDA3Ppg9XkS+PTp03IC5/btW+jX7105lWRqfE7BgoXkcAEb94u5P0q5ly//HS4urhJ/zPhfRmXxXbiFduLEcURFRaJgwcLg9hVjou/fD5SQR1Pje3l5eWPt2lUSZrlu3VrZ92WU2OuvN5QtHEatMezx1q2baNiwMSpXriohk8TlyJFDcHR0koUy7j8HBt7De+9xDzaTRJl9/fV3yJ79xR9KSOkwVAKnFLnE16UqgRk2mCdPHjk2+PPPEzBx4nghcP/+vTBgwECJ8e3WrRO+/ZbherFYtWoF3ntvoIQwMsqIEUt0vT/4YADWr/9bAgpGjPhKoodatWoqVoWDllFOGzZskYCEd9/tj9Wr/xQiMyKKkVQcwK+/3kD2JGmtGYg/ZcqM+DdntNTx40cl+J57vX/8sUqe27lzRxw6dEz2cNmOHDksUVM8TMBAis8//1Qikbgf/PvvK4VYAwe+h3XrNqJWrapYsWKNBDGsWbMKYWEPJXqqTJkSUkyMgSIMbTS1evVqSHgkg0U+/fQTFC5cGN27vyV7tdyz5eEHRo4xwIN71IzIYpTUli2bsGbNGsyZMx+TJk0ETxExTvvo0cPi0TAIhHiPGDFK9o/Ta1MCp45mUo3A3F8sV+41IRa3cRiMUbduDVy6dB116lSPD5z/558tcrqHFoVE4jyU53FpkevUqStvNW/eHPz223KJrZ0xY478jRbGwcFRSMMDEdu27cKMGb/ItVWqVJU+tGok/htv1MXGjf/IaRtasU8+GSJEMLWEBOZ8mDLw1FHZsq/h8OHjiQJRunbtiHnzFmHUqC9Rq1ZtifHmfU0hhQyu4IGEhg3rJ0ng2rWrYffug4nISzkYfbV48e8i0htv1JGPEN+PXgwJyKg1nkQ6ffqi7PEyTHXt2pVyqIAhm4MGDZGTRQzAMJ3fHTCgv0RHMbjjk08+T+RNpM5wSb27KIFTB8tUJTAJQOLQpeQiEYl76dI1Ca7ngDQ1BuKzwp6JwIzpXbp0Mdq0aS9deOCb7i2tm4nAcRX8bHH9+nWJfNq2bTemT58qp314+omN9+TiTYMGdbFp01ap+MeQzY8/HvRUAm/Z8rdEV9HtprU8cOBYosgpxgXz6CG9gr17aZGXiBfA2Ge2gQMHiIUmgWmVedifLj2TTdACEwMSOGEsNK9j1NqCBUviCbxmzXoJ3AgPD0ffvj0Fr0aN6scTmN7AqlXLkStXLqlQyEU5HmHctm0LPv447jCEicBHjx5BoUKFn3hm6gyZ1LmLi4sTXFzS7yJb6rzli79LqhGYojIEkORs0qQ55s2bJcEMdKHjAvv7I0+evPK3Vq1aI2/e/PjqqxFive7fD8Ybb9TG2rUbpNreyJEj5FQQY495NpaZMrp1e1PmilmyZBGLRXeb81ge+2OsMA/Gc7WZccyce9Oa08rTcjKyacqU6Ula4OQIzDO1dLMbNmyIL78cLXNPHuebOzdubj5s2MciN5MYMJSSoZp0d7t27WY2gRmKmC9fPnHpGa9NktLC16xZFd9//+N/Ryw/lA/F1q2bkyXw1KmT5ICD6RTVix9Glj/B09MVjo5PHvm0/E6v9hWpSmDGDfPMKVd5Obdbs2a1zNt4TnXmzOni/jZq1CQ+vplxxzwEz8PhnM/Onz9XwvG6du0hJ4JIkLlzZ0sccLt2HcS6cg+XlvvixfNycIJzWS7icPGLc0hGPtEdZpwyV7rfeec97Nu3J1E6H56w4W8M1qerzxM+dF1Hj/4Kn332uVhYU2PoIAP2GePN5AMMG+T1nBtzEYtE42KRn99NmZPS0jIpAb0IxkxzXs4YYXoDCRtxMq3A07tYvnwZDh7kIlZ1NGvWXNxpfpTmzJkhBw+IG09S0eo+fBgm0xAewKen06BBI7k1pxD8CPBDxkW/9LoKTe8kc+a42sTang+BVCXw84mS/q6mN8CPCs/Eck6uLXUQsLOzkRzRGjn3/HgqgZ+BIbeCaFW7desuGUO0pQ4CXl5ucHBI7JGkzp1fvbtYRODg4AcIDn746qGkb5xqCDAPFvNhaUsdBMwmsLkpZVNHLL3Ly4gAF61I3oRHEV/G9/z/fCezCfzgwUMEBT2Ily2u+py9VCRkbnVtisCzEOC+L7eNNBd06o6TZAlMy8tqDCxkxsavJ6vNZczIanNWcpg8MDAEERFR8t/aFAETAhwf3Lt3dXXWomYvaFgkS2BWH+T/GCTBZX/TFzThCqIpIwWzMjD5O/dd48qNsk7wC5Jcb5vuEOD2ED/wHCdcaTZl6NDV5henqmQJ/OIerXdWBBSB50VACfy8COr1ikAaIqAETkPw9dGKwPMioAR+XgT1ekUgDRFIVQKbUpxyAcuUd0oXsdJQu+ng0aYSwHGLW0mXjE0HYhpWhOcmMInKVerQ0DA8fBgRT1zDIqKCv1AE7O1tpSqhg4O9EFrb8yHwXATmvu+dO4HJFvx+PhH16pcRAVpmRmU5OWmJ0efRb4oJHBYWgcDA4P/2e59HBL32VUYgQwYHuLvHleLRZjkCKSIwXWYW+o4L1kibRtfdSh5NGazi/q9pwpU2IulTU4gAs3Mwsk/1ZzmAFhOYxKHbzIirNGmxsYi9ewtW1y/AJugubBALKzc3xLh4I9bZHVGemQF7dcvSRDfP8dBMmdw13DIF+FlM4McPNaTgmc91SUzAHVgN6gE7LzdE37oNuwehiHW0xkMnR2SwioV9jQYI7vGx5KTSZhwEGKpLEqsVtkxnFhGY1vfWrYBkV5r/+OM3yYXMPMZsTLLGFLLDh39hlnRMoePp6SXpYB9vUTevIHpAZ9iVKY/A61fg4+YOx0w5EFKhNrB3OTJGhOH+sF8sHghz5sxEgwYNkTVrXC5lptzZuXOHpPJ5Vvv7742SRsecqvTPug/T2jIvNpPVcRAzbQ/zRDO9bFLH75jFk2lzmYL2RbRRo75IpOe+fd+RfGQvsmmeLMvRtYjAnPvSfX5W48o0czizsDfTsbKRCCzwPWvWfPk3+yQ1KFnVj0XKmMv544+HSR3bJwh89SJCBveCc63Xkal4RVi5uCBqyyrcDwqBfXgAHBwiEDJyMSfEZqNx9+4dVKvGbJaNMGHCz0Ig5ptiKp0BAz5IdB9+xHhYgx8X9mO9Y5YyZQ1e7nknzPPElDzsY87515MnT0g+a2awZI7rjz/+CIsXL0PGjHGH3x8vCzp06EdSm5iJ5xM25uyKjo554uPHcqXMd51QlqRKhZruxcSBX345Kv7WpUqVlpxgrA7JZm2dOJ8Vs5fY2MRhwkacKHNSH+GnKSZjRic5uaTNfAQsIjBXnk3HCp/2CBa4Zm3cY8eOYc6cBU8QeMmSRRg+/BOpoMBUqswhzSLgHIg//PAdPv/8S3z99UjY2dlj8uRf8MYbDRMP0BtX4LhmGVxLlYdtxWqI9fdH2KpF2PvP3wi674daOTwROnEN8NgAi4iIwJo1K9G8easnBhWrLJA0rOe7c+ceSc6ekMArVvyOf//dKUnTO3duL/mY27Zth7FjJ4LeBtuoUUybGyupZVmRYenSRZKPmsnsmPB93769ksCe+ZzZevTojF9+mSnJ69hMBN6xY4+kxWUhbyb8Yxs37gf5X4ECBbBo0e9SmNtE4AIFCuKdd/ri3Xffg5NTBrz5ZntJHshc0axcMX/+HMkG2qtXD7i7u2HVqj8l9e3Zs6fRqVN7KWbOYuBM8JewtW3bUhL5JWz0Nvr37y0fqWnTZkkyQOLao0cXbNv2Dzp0iEvazxNrzNZJj4KFwZmT25yPGM+X0wprMx8BiwjMw/v37gU/9e78ojNhOau8M18zLTbLnZgsMP/+yy9T8NlnI3Dv3j3JY0wSkxQsO1K8+GtwccmIQYM+kGTrrOTweDZHXLkAl6WzkaFuM9hUrozYK754sGc3jp8+BqfL55EvKhTBPy8F7B0SyRkQ4I9vvhmFr776RjJYJmxvv90b3347FpMnT0SxYiXENTURmAPv+vVrQl6WaHF3d0fnzt2xYcN6SSHLj9WWLZvl91OnTmDMmP/hjz9WS5bJWrXqSkWHDh3aYPXqdUKi1avXS5bJkSM/T5TqlgRu166lkKtv37eFDGyTJ/+EmzdvYNCgj6X8y1dffYFff136H4H74ocfxkiaXubGXr16pVR44AeoZcsmUlycie+ZjJ4eDfNvL168CAsWLJZn0dvgh7J166aYOXMeChcuEg9LrVpMj/uu/JtF0phpc9GiBf/l4I5Fnz49sWbNX+jQoTU6d+4mSe/5cebUifWraK1btmwlZXAOHNgvz0qu2dvbwdvbLblu+nsCBFKVwCRl/fo1hSS0AhMm/Ij9+4+K9aELXapUGVEmBwpdPSZzZyL4Tz4ZjNmz46w1G0uXPM2Ftr58FhnGfgWnVm/CxicbYGuHE6MG49LN6yhsY4ssmbLjwYzFgJN5rpifnx9YDGzo0GGSxpXlSejqk8CsuhAZGSkDlVaH3gXzWpcuXVrm97RAJCpJwDzMTGfbokVjqU6xY8c2SRPLvy1YMBcnTpzFp58OFaL/8stkmbsyna6pkcDMLT169LdChOnT58DLywvt2rXCwIGD4ufY7LN06R9StYIpcUuXLouRI7+W2/ADsnnz3/JxXLnyD7HwrOhAK01ZL168IN4Or2/R4lF637//3iDJ4ZlH29RYmM6UvN7FxUVIyqqH1N/Dh6Hy0fr7722oXbsqNm/ekcjCvvVWV+TLV0Dc6aCgQKkVxdzZyTUlcHIIPfl7qhJ4/fq1WL16FYoVKy5PWrhwvpCBriMJXLt2XVF0ly7dZY7Eqgmc4/Xq1S1+fpwcga18zyBo/AjkqFgfUb6XYO3ljZDtGxB2/RqirGwQ65MdGacshJWr+xNvK3vHj82Nv/nmK1y+fBmc47Hxo8JaRsxxzbzVlJcFwz76aKj8jR4Bc1gPGPC2uKm07JwDN2nSTKo7NGvWCMuXr0afPj2EhJzTV6pUFgcOHJGczidOHMP69X+KFXRzeyRjwjkwCb9x419S84juKb0Yzs8pf9OmDcQNHjZsiEwHvv32a3zzzXdSe+n112tj4sSfUaRIMfkYkNgkMPNTM980C8ix5OvKlevw/vvvSBJ84sG81CymlnC++rgLTRJST/yYcfrTvHlDrF27ETVrVsGff24SK837cK49fPgw+RAxbzb/HRYWblapUyVwGhKYg4vVFThoOedi47yIlQ1oeUngyZOny8BiNQZW2Js7d5YUI3ucwCySRuvDRO2uronnRGGnDyNw6vfwDg2H4+1rcLK3R7StPfzv3UNEjDUCsmRDjvGzYOfhlQgNVnHo1+8tKWeS8J4sfUIymZKgMyk6pwJ0o7mIxYWibt06SlWGlSuXIzw8DG+91RsDBryDwYOHSkL3xwlMgnTq1Ab/+98P2Lx5k8xfz5y5iNDQh6hUqYwQcuTI0YnkS0hgPv/TT4dIZQWubrMi43ffjRUXmQnoiZ9pDsybcPFr+/Y9QuBPPx0uid8//fRjzJ49P0kC8wPQpk1zqazIaQpL2FAPOXPmjJfpcQJTvs6dO2D+/IUyfWABN1rezz+P81yYQH/IkEEYNGiwlIdhhYlx436SOThLxowY8ai0ztOGqRI4DQlM60TFsoIAi3+xkdRbt/6DYsWK4ezZs6hevQbOnTsrloi5kho0aAwPDw9xN6tXrxkvPSs5bNq0AZUqVZFKCwmb/6Wz8P3pG0SdOwe7kCA421ghMtYa96KiEOnogujiJVHlizFwTmDdeD2tw6ZNf0kpU5N8/DstHSsZmho/LGfOnJKPzrVrV1G0aDFwlZoLV3Xr1hdC8mNQvHhxKap25coVWX3l4Ke7zYUeLrzR3T537pyUJuWWVNOmzaQfV3dZraJs2fKJ3ovF2zhfpSWnVaQbvHHjerGydJW5pcQSqnXrvi5z+P3790nJFVdXN6lOwXtzL5WLbXTPaU357ICAANkR4GIhPQRiz5pNxJiyEhd+JB5fzaaLbCo2Z9Il3+n06VMoV66CuMZ0y2lhWbCO7jk9L04tKH+ct3FccCFuCTFXAltO1KddkaoudOqJ9fQ7BQYG4OiRvbC6cA4h584gPCgQUTy+6OyCiKzZYZ8rP5q3aCMuYXpq3FKhS/7XX39KLaeEpUbTk5xpKYtaYMvRNxyB+Yr86p87fxo3rl8VS8CsmVz1LFr0NeTPX9ByFP4frqBbfO7cGRQuXPT/4WnGfIQS2HK9GZLAptc0ZcPkv+m2aRie5QMgPV2hBLZcG4YmsOWvq1ekZwSUwJZrJ1UJzFVSLnRw64Ub+jVq1JKFlKdF4XBeeOPGjUSrn+a+AhdNWILU3MbAhhUr1prbXfulAQJKYMtBT1UCs2A3V2AZUeXrewldunTCuHET4+sBPy5ecHCwhFWaE6Xz+LWtWjWT/VZzmxLYXKTSrp8S2HLsU53AjEhiUAEbAzW477tp01bZFuKJH85Ta9Wqg549e0sE1vbt22SLZcSIrzBq1Je4cOGc7HUyJpofAm5bDB06GF5enhLrO378JLnur7/Wy+mhH34YjxkzfpE9Zx4m4P4tTxAxnG/w4IGyuFWuXHnZklmxYp3lCOkV/28IKIEth/qFEpji1K5dDT/9NEUigDZu3CKnWHr37iEHFZjRgwELP/00VQIOGDf7xRcjcfmyLxiOx5BERiIxqofBIQyOz549zjVnyCIDJvz976JXr+4SH8wTMQzMWLduowRPMEC/bdsOWL16BX76aYKEbWpLvwgogS3XzQsncI0alfD55yPx0UcDUbFiJZGQ1vGbb8ZITLSJwF9//SX27dsDb+/McmTt0KFDWLt2Pbp16ywxt483E4HPnj2Dvn3fQv78BaQLgx4YxP/ll8MluojNFIJoTjyu5RDqFamFgBLYciQtInByxwk5B07oQjOSiSeLvvjiKzl5tHLlWjmTysZABkZvMaZ30qSpmD17hkTrMPLI1Bhx1LBhvXjLGbfnG45MmXzQokUjrFz5p0RLff/9t3JIIOF1tNwTJkySxACMpOKBhQ0b1AJbPkT+/65wdLSDp6eeRrIEcYsInNyBfhKYcbAM27t69SoOHtwv50bz5MmD9957Jz70j+GVs2bNFTKToP37vyPnRrt06SihhDxuR7L+73/fY9asGTh69DAqVaosscj8GHBu3Ljx60L2Hj3eQtu2LVC//hty0IChkfPnL5IwwZkzZ6BTpzdx7NhRnDx5Uj4g2tIvAqwh7OYWl8BAm3kIWERgRhP5+TGlTtI358EFnj3lthHjcUuVKhWfuYEHv7mQdf9+kJwt9fT0lJswXpYuNY+ycT67adNGid0lIRnPS/eXW1MXLlyQWGoG37PxjC4/EM2atZTIrLVr14AZPfhvU9ztsWNHsH//fjRv3lJc66pVq5mHivZKEwQ0pY7lsFtEYN4+JCQU9++HWv4kvUIReAYCzOLh4+Op0XQWjhKLCUyLePv2Pa3GYCHQ2v3ZCHh5ucHBwU5hshABiwnM+/PwgL///WSzU1ooi3Z/RRFgrSQ3N2e1vinQf4oIzOeEhoYjKChESZwC0PWSRwhoIrvnGw0pJrCplOjt24FK4ufTwSt7tbu7sxQ301NkKR8CKSaw6ZEkMveHmbEyPDxSyZxyXbwSV9rZ2cDJyQGOjszBlTi39CsBQCq/5HMTOKE8pqTnkZHRkleKTQt8p7LGDHY75hCkheWWIMlrTn5og71imor73AQ2Hap/8CAMrJuUlhUL0xRJfbhZCDDaipUImRNNXWezIHtmp+ciMK0sKzVEREQ9vyR6h1cKARsba1l5piutLeUIpJjA3EpilQbW4dGmCKQUAReXDOD/tKUMgRQRmLWB794NTFN3+VGB77gX1wLfKRsA6eEqWmLuBatLbbk2LCZwmhf4JlnDH8L6+nlYB/jBJjYGVu4eiHbLjJiMnohxymhRZULLIdMrXgQCmTN76Kp0CoC1mMDJFThLgQwWXRIT6A+rob1hl9ER0XcDYBcWDjjYINzRAY5WgG2dxgjpMMCS6qIWPV87vxgEuKjFwmZqhS3D1yIC0/ryNFJyK83//LMZ3t6ZUKLEayLNyZPHpR6QqbRmciKyagArDiSstWu6JurmVcQMeBP2Jcvg/rUr8HJxgWO2vAgpXwuxe36DS3Qs7g+bavFAYBkVHlmk3GwszrZ37x45yfSstm3bVlmIqVixcnKv9czfWWOJp7XatesosjNRAU9QMd2Q6Qx1whvMnDlNKgUyQ8mLaDzGGTcxiWstWrSWcjcvsnl5ucLBIa6qhzbzELCIwCxszcirZzWSvEmTN6RM5qxZ86Tr4wW+kyoyxn7MxMHB+uwC35fwYFB3ONRqgEwFS8La1RXRuzbiQZQN7B/cgp1VMEK++NUiN5oVBEuVKorOnbti1Kj/JVvg2yR/wgLfPM/MltCCsAIjYF6+6oS1kfz8bkkdIpYp5dFKNj4z4f2fXuA7Vvo+vt/KHYPHc2c/fs+Eeq1btwYGD/44/k8sfcOP6tOuefz+pu1FS/Z9tcC3eaRN2MsiAoeHR8ghhmc1lp9kjSQOSB6sf5zALIrFDBru7h5yqN/LyxtffDFccl6x7CZLaY4cOUIs4ejR36FmzVqJHhdz3Rd2v/8K9zIVYF+5JmIDg/Bw5QIc3Po3QoLvokpOL4ROWP1EgW+eFf77701SB+lxy06Z9uzZhWXLlmLHjr1iaRIW+N6w4U8pqzl48CdScvTAgX2SeGD48C/w+++/CTFmzJgmg3vq1BlyZpn3/O67bySAYfr0WThy5IjUI2KxNDYm3GNVQRb+YktY4JsZN3/8cQIKFYqr1ztz5nRJ3Jc3bx5MnDhFsElY4JsFxlgK1NHRSeS7fdsP7777vpQE/eOPZZK2l4XHWNRt5sy5Uj+YaXlZoZD1iydOnIzXXiuVCOekCnyzFjILdxM/1nei18Fz3kOGfCi1kJo3b4GhQz+VjzDrJDMBA+swjRr1jVkBHBoX/YIJzDKRAQHPLvDNBHN9+/aXYmYsy0nLZLLArMjHzJOfffa5ZN0YO3aMVKJngW+6gyRr5syZJX/W228PkJxZj9cQsrp6ERlXLYZz3WawLlcWsTdu4OHevTh18jDszp9G3oggBP/8G2CXeH+Rzxs2bLAQgPVuE7aBAwdIqdDx48dKxkwmFzAR2MfHR+ri8jrWO2YBM2YBWbBgHlq3bit5vJhM4KuvRktivnnzZksuLlbna9q0uRQPY01eVkAkuZYvXyMFx4YOHSSVHE2NBGZx9EKFCovb3q1bT/mJRbWJH4lBl3rp0kWYNm12PIFnz56JAgUK4K23+sD03/wYtm/fShL9cTpz6NBBuZ5ZSujyz5gxRwp8M/Mns3Z27doRixf/jty588TLU79+LcGEzdHRUQqajRnzjbj49JQ++WSIFCunvlnQjHqePn2K/Dc/INevX0fPnr2kxGxgYJDgk1zTnFjJIfTk7xZZ4OQWsFhmkgW+mePq2rVr+N//RmH37oMyl2R5UVbkO336pKSdpcs1derPknmS1sTcAt9Wl8/C+cdRcQW+s+UErKxxavQQnLh+Da9Z2yBbUU98ywAAIABJREFU5ux4MN38At+0ip06tRNr6O/vLxaVVpQEZkFuZhBhOU5aHc5Rp0z5GY0bN5GMlyVKlMQff/wmNYBbtWojfVk4m+9EQjLbyJ07t4XMx4+fESvINLicv7IqY6dOXRIRmFMPE9E4/WB93fbtW+P99wfGV29s1qwhli1bKWU9mcmEtX+/+GKU3OfKFV/xFEggpvBl/V9+VJjwjx8mU4HvZctWSOFw0/ye78z1CdYgNrUKFUqjSZO4aQHrGA8c+BGY4YTvRD3zvTdu3Ipatapgy5a4ZP6mxqyjFSpUFM+Ec3umDjYnoaASOI0JTEs1ffovKFo0roAXXdLfflsBPz8/ITCLTNP6dejwpribnFPTxbSkwLe1FPj+HDmqNUHUFV9YeWdCyMYVCL9xHRGwgZVPdjj/shBWLuYV+KYXsH//3vgFNxYoX7duA4KCgsBawbS4r71WEv36vQNWkuCgPH78CPr16yOkZ8K8x+sDr1q1Dm++2R5z5iwQ61WpUjns339YLKmv72X5SNAis1B2QgvMOr/84HEqQTedlrZLlw7o1auvlOhMXOB7MJo0aY6vvvpC1hpoPWk1+YFgsfLWrZtKNtCkC3yvlWSDTKjP96EeSMCEJHzchT516qTIwpS9zHnGAt+rV/8FZh3dvHk77Ozs5T6UceDAd6U2MKcHXAdgsE/C4uFPG6ZK4DQkMBVHpY4f/3N8itf169dJ7ipWjCeBx42bhG7dOuGrr74RN5Lu1S+/zETv3t0xa9b8eOlZ0JrzSLprGTMmTnIWfuZIXIHv8Gg43PKFk4MDomxsEeAfgMgYK9zzyY5sE2fBzj3xiiktISvHjx07IdE9OeiZhtaUa4uEjsuG2VgKfHNu2bNnV4wZ86O4yrGx0WjfviM+/PAD9O//Lu7evf0Egf/4Y5XkvibBd+zYgVGjvsDp0xfAShTMW03Lx7S6CVvCRSzmt+ZCXpky5UWuSZPGy3oA5/CXL1/E99+Pi3ehmTyf82kmz2ftYbqqTIz/4YfvCbGTIrCpwHefPv2RI0dOfP75p5gyZVp8kXPK9TiBme+MH9r58xdLEv1ff50nlpfzXxKVifqZ1LB7957ynsuWLZEFQX6s2FgMPbmmBE4OoRfoQnMxZN68OTIXM9XmJalphVmo+9Ch/bIVwULVGzb8JV9kkoNf85Ur/5DfTI0We9Gi+VKMm/PghC3g4hn4ThgNq8sX4BhyHy42VmJ5/SMiEergjKjCxVF51I/I8FiBb7q3CxcuQI8evcQqmhrnsl26dIv/Nz84+/btFZeT5UC5UMO/kcz0HDgHZT2nMmXKiAVk5Qhmw+TclSlvFy78Vd6Li1h0N+lqX7hwHn369BNX+/XXa0ui+se3nfiBYWJ7LnLRKtINnj9/rqwF0EOgG8r1gY4d3xTXmtk3OSXhgtvOnbSAdnJ/fjTz5csnFpFJ/LgdxkUvJhlkEXF+hDp16iz3X7JkkczRWZS9TJmyiXBeunSxfKhMjbpcs2YlDh8+jFq1aoOF0Nu0aSfJ9KljbnuxKLqpQPmff67BwYMHxTPo2LETHBweYa4W2HKiPu2KVJ0Dp55YT7/TXf/bOHXsIKyPH8a9IwcRERSIGFjB2s0DkQUK46FPDnTs2EVWZNNT45yfq/NcYd+06R9ZPNKWGAG1wJaPCMMRmJaAli6uwPcVBAUGIpwFvjM4o0jREihYsIgsOKW3iB4SmJaUC3gJPQDLVfbyXqEEtly3hiNwwlfkAklc4gArWYBJb6S1XB2v9hVKYMv1b2gCW/66ekV6RkAJbLl2UpXAXFhhYAOtYb58BVCzZm0wEOJplpHWkyuWpnBBS8Tn/m3CbZjkrtX6wMkhlPa/K4Et10GqEpjbCFwZ5YrslSuXMWzYUNlrfFpJk5CQYAmj5NaOpa1Dh9bx1QfNuVYJbA5KadtHCWw5/qlO4ITVCblt0aFDG6xf/7fUN5o7d5acZGI8MiOXvvjiMwn1Y1HuoUM/w+TJP+Ho0SPyFtw3LFCgoEREMfyS9Y5ozRmcwOsYcNGsWXOpShgXFbRBrmvduh3eeKOBbJ98/fVI2eaoXr2W7EuuWKHFzSwfIv9/VyiBLcf6hRKY4tSqVVUC6Fnu01Tgm8Ec8+YtkkB4U31ghvkx5JDW+Ny5c/jgg7exdu1G9O3bEx99NBTFihXHpEkTZF+YHwBTfWC60ozr/eOPNbI6Xbt2dWzZskP6Zs2aBf36vSvxydzv1QLflg+Q/88rlMCWo/3CCVyzZmV8+ukIiRYqXbqMSHjx4kWMGzcRxYqViCfw6NEjsWPHdglMYMgiT7ds374L3bt3SbbA91tvdZMSpmwsJcogfkY/aYFvywdEWl6hBLYc/RdKYEb79Onzlhwn49G12bPnxy9oMQKLRDUV+Gb8Lxe/aF1NLVu27HK22GQ5OWdmbDIXr0wWmAH8PLY3ZMgn8ddlzZoNJDXDA3mG1eTK//XXZssR0iv+3xDQAt+WQ53qBM6Y0QU5cuSQAt+rVq2QEzGFCxeWY2cNGjSGq6sLVqxYjqlTp8u50ebNGwn5KlSoBAbz8xgdQyl58oVW+qefJoAH7itWrCRH63jOlX0bNaoPxvIyZpkLVN27vwV+wX/9dT7mzPkV69atkdA/hk4y1PDgwQNy/E1b+kVAC3xbrptUJfD+/fvkGB23jXhGlSlqrK3jymeEh4dj+fLfERgYgDZtOshZYTYW6WasMA8ukLiMB/b09EDLlm0kvpeRVyz6ffr0CSkMboqNvnz5khCTh9ZZ4HvRol9lTs1/m2KxuaXFGGLGOnNxjEXDtaVfBDw8XKTsijbzEUhVApv/WO2pCCRGQAt8p2xEWETg0NAwBAaGpOxJepUi8AwEPD1dwZQ62ixDwCICsx4wayBpUwRSEwEHBzuQwBrLbjmqZhOYc9FbtwK0fKjlGOsVz0DA3p75oJ/MnqKgmYeA2QS+f/8BQkIext+VtV1dXJwQFPQg2TzR5omivV41BDh+nJ0zgPNfbSlDIFkC0/KSuMHBoWBFOW7VcK7C/9Hl4e90q5lylgXPtB5wyhTxqlzFDz9dZtZCYjUGbc+HQLIEZiEznhoi8Mkl6SaZmcCMARpx1RuYZPz5BNSrjY2AqcA3txNtbRMnzjP2m6UP6ZMlcPoQU6VQBBSBpBBQAuu4UAQMjIAS2MDKU9EVASWwjgFFwMAIKIENrDwVXRFQAusYUAQMjIAS2MDKU9EVASWwjgFFwMAIKIENrDwVXRFQAusYUAQMjIAS2MDKU9EVASWwjgFFwMAIKIENrDwVXRFQAusYUAQMjIAS2MDKU9EVASWwjgFFwMAIKIENrDwVXRFQAusYUAQMjIAS2MDKU9EVASWwjgFFwMAIKIENrDwVXRFQAusYUAQMjIAS2MDKU9EVASWwjgFFwMAIKIENrDwVXRFQAusYUAQMjIAS2MDKU9EVASWwjgFFwMAIKIENrDwVXRFQAusYUAQMjIAS2MDKU9EVASWwjgFFwMAIKIENrDwVXRFQAusYUAQMjIAS2MDKU9EVASWwjgFFwMAIKIENrDwVXRFQAusYUAQMjIAS2MDKU9EVASWwjgFFwMAIKIENrDwVXRFQAusYUAQMjIAS2MDKU9EVASWwjgFFwMAIKIENrDwVXRFQAusYUAQMjIAS2MDKU9EVASWwjgFFwMAIKIENrDwVXRFQAusYUAQMjIAS2MDKU9EVASWwjgFFwMAIKIENrDwVXRFQAusYUAQMjIAS2MDKU9EVASWwjgFFwMAIKIENrDwVXRFQAusYUAQMjIAS2MDKU9EVASWwjgFFwMAIKIENrDwVXRFQAusYUAQMjIAS2MDKU9EVASWwjgFFwMAIKIENrDwVXRFQAusYUAQMjIAS2MDKU9EVASWwjgFFwMAIKIENrDwVXRFQAusYUAQMjIAS2MDKU9EVASWwjgFFwMAIKIENrDwVXRFQAusYUAQMjIAS2MDKU9EVASWwjgFFwMAIKIENrDwVXRFQAusYUAQMjIAS2MDKU9EVASWwjgFFwMAIKIENrDwVXRFQAusYUAQMjIAS2MDKU9EVASWwjgFFwMAIKIENrDwVXRFQAusYUAQMjIAS2MDKU9EVASWwjgFFwMAIKIENrDwVXRFQAusYUAQMjIAS2MDKU9EVASWwjgFFwMAIKIENrDwVXRFQAusYUAQMjIAS2MDKU9EVASWwjgFFwMAIKIENrDwVXRFQAusYUAQMjIAS2MDKU9EVASWwjgFFwMAIKIENrDwVXRFQAusYUAQMjIAS2MDKU9EVASWwjgFFwMAIKIENrDwVXRFQAusYUAQMjIAS2MDKU9EVASWwjgFFwMAIKIENrDwVXRFQAusYUAQMjIAS2MDKU9EVASWwjgFFwMAIKIENrDwVXRFQAusYUAQMjIAS2MDKU9EVASWwjgFFwMAIKIENrDwVXRFQAusYUAQMjIAS2MDKU9EVASWwjgFFwMAIKIENrDwVXRFQAusYUAQMjIAS2MDKU9EVASWwjgFFwMAIKIENrDwVXRFQAusYUAQMjIAS2MDKU9EVASWwjgFFwMAIKIENrDwVXRFQAusYUAQMjIAS2MDKU9EVASWwjgFFwMAIKIENrDwVXRFQAusYUAQMjIAS2MDKU9EVASWwjgFFwMAIKIENrDwVXRFQAusYUAQMjIAS2MDKU9EVASWwjgFFwMAIKIENrDwVXRFQAusYUAQMjIAS2MDKU9EVASWwjgFFwMAIKIENrDwVXRFQAusYUAQMjIAS2MDKU9EVASWwjgFFwMAIKIENrDwVXRFQAusYUAQMjIAS2MDKU9EVASWwjgFFwMAIKIENrDwVXRFQAusYUAQMjIAS2MDKU9EVASWwjgFFwMAIKIENrDwVXRFQAusYUAQMjIAS2MDKU9EVASWwjgFFwMAIKIENrDwVXRFQAusYUAQMjIAS2MDKU9EVASWwjgFFwMAIKIENrDwVXRFQAusYUAQMjIAS2MDKU9EVASWwjgFFwMAIKIENrDwVXRFQAusYUAQMjIAS2MDKU9EVASWwjgFFwMAIKIENrDwVXRFQAusYUAQMjIAS2MDKU9EVASWwjgFFwMAIKIENrDwVXRFQAusYUAQMjIAS2MDKU9EVASWwjgFFwMAIKIENrDwVXRFQAusYUAQMjIAS2MDKU9EVASWwjgFFwMAIKIENrDwVXRFQAusYUAQMjIAS2MDKU9EVASWwjgFFwMAIKIENrDwVXRFQAusYUAQMjIAS2MDKU9EVASWwjgFFwMAIKIENrDwVXRFQAusYUAQMjIAS2MDKU9EVASWwjgFFwMAIKIENrDwVXRFQAusYUAQMjIAS2MDKU9EVASWwjgFFwMAIKIENrDwVXRFQAusYUAQMjIAS2MDKU9EVASWwjgFFwMAIKIENrDwVXRFQAusYUAQMjIAS2MDKU9EVASWwjgFFwMAIKIENrDwVXRFQAusYUAQMjIAS2MDKU9EVASWwjgFFwMAIKIENrDwVXRFQAusYUAQMjIAS2MDKU9EVASWwjgFFwMAIKIENrDwVXRFQAusYUAQMjIAS2MDKU9EVASWwjgFFwMAIKIENrDwVXRFQAusYUAQMjIAS2MDKU9EVASWwjgFFwMAIKIENrDwVXRFQAusYUAQMjIAS2MDKU9EVASWwjgFFwMAIKIENrDwVXRFQAusYUAQMjIAS2MDKU9EVASWwjgFFwMAIKIENrDwVXRFQAusYUAQMjIAS2MDKU9EVASWwjgFFwMAIKIENrDwVXRFQAusYUAQMjIAS2MDKU9EVASWwjgFFwMAIKIENrDwVXRFQAusYUAQMjIAS2MDKU9EVASWwjgFFwMAIKIENrDwVXRFQAusYUAQMjIAS2MDKU9EVASWwjgFFwMAIKIENrDwVXRFQAusYUAQMjIAS2MDKU9EVASVwCsZAbGwsoqOj8eBBKMLDI+S/tSkCySFgZ2cHBwd7ODtngLW1dXLdzfpdCWwWTHGdSNzw8HD4+d1FWFgYvLw8RBm2trYW3EW7vooIcOxERkYiODgE9+4FwdPTQ/5na2sDKyurFEOiBLYAuqtXrwvYXl6esLGxfi7gLXisdn3JEDCR+caNW/DxyQxXV5cUv+FzETgiIhL/7j2E4JDQRALYO9ihXKni8PZ0T7FgT7sw+EEodu87jGs3/BB4P/g/FzZGyGRrYwMnRwd4uLuiYP48KFeqKC76XkMmL0/5W0pbTEwMLl3yhYeHO1xcMqb0NnrdK4TAiqBdmOm/HsfCLuF2VCAAK/jYuqOEY270926KJq4VBY27dwNgbW0lRE5Js4jAt27fxb/7jqBAnpx4rVhBbN25Hzv3HkryuT6ZvNCrS+tUtVLnLvhi5Z9bEB4RYda7enu5o12LBjh15gK8PT1QuGBes65L2IlfSz+/O8iQwQlOTo4WX68XvFoIhMaEY+D1qZhzbyOe5hjHAujv2QQ/ZO8Neys73LnjL1MxWmJL3WmzCUwrFBkZJfPAyOgoXLx8DWv+2vpM7VQpXxKVypeCDSfsVoCtja34/JY2PvPsBV8sW7XhiUt9MnshKioaWX0y4cKlK3gYFv5En3d7d8KeA0dRKH9u5MmZ3SKQ7t8PRmBgELJm9bFUbO3/iiEQEROFWucH42DYebPevJxTQWwt8D3srGxx5co15M2b2+LFLbMJTMt36uzFFK+48svi7uqCzu2awM1Cn58fjkkzFiL0YdgTwJCUjV+vKXPSaXOXITjkwRN98uXJgcb1a2Dmgj/Qp1tbuGR0NgtgdiKwdG/o5mhTBJ6FwC931+H9G5OfNCDezRAeE4kZAeuf+G1WzkHo7FEXYWHhsjCaKZO3RSCbTeBvJ8xMkrx2trYoV7oYcmbPIquxd+4G4NCx0/APoN8PIc6Wnfvw8D/ytWpSD8UK57dIyH927sPOPUm76lyWH9CrEw4ePYktO/Y99b7tWzbEmfOXkNE5A2pXq2DW87lqSPcmUyavJPvfuOGHhw8fgt4JP1D8H93sbNmyJHt/ehVcjfTwcEvkEQQG3kdwcDBy5sye6B78kLi5ucHNLeULHskKpR1SjEBwdCgKn+4N/+j78fewghXe9mqKb7O+hVjEYsjNGZjh/ydiQCc6rmWydcPJwtPhYu2EM2fOo1ixImKMzG1mE3j0j9OeuGcGJ0f0fLMlLvlex4EjJ8V9LVY4H8qWLIY1G7biyrWbT1zTrEFtlCxeyFz5xD3+ftJsIUlSrWC+XOA9d+49jJNnLiRpgXldiSIFULF8SSxYugofvt1dFrySazdv+sncl/97ViPJucfn/t9CWdx0IxI2NjbyUYuKihKS8t+mPeTo6BicOXMOhQsXgL29fTyJeS+udhcvXhgODg7yWH6dT548g1y5csLb2yNuGhMZKb/xuaZ5E//GZ/Nv3GeM68dpT0z8MxL+zdSP9yHO0dFRci33tU1bY/zvuH/bWTSwksP2Zft9eeBOdLzyv/jXsoYVunjUw4/Z+iEwOgQRsVFC1o9vzsDcgI2JSLw496do5VYVd+7chaurKzJa4CE+F4FpTc9d9MXxU4l9/iyZvcHfpsxe8oSemjaohVLFC5utv6D7wZg0Y1GS/bni/H7fzvht1Qbkz5MLri4Z8PvqTUn2zZHNB62b1seUWYvRu1tbeLq7JSvDuXMXxBKSeOYSmGQ9deoc7O3twFX6ggXzIiIiCv7+AcibNxdu3bot5AgNfYi7d7l44Yx8+XLDzi5uL5kE5pyb1+fOnVP+xmtITienDELg69dvSh+S0dvbE1my+Mj+4uXLV+U6kpgfBt6fC3D8QJDQBQrkFTnoObAf5eDfTDJTBl4bExMrHxB+OGgV6FXw70WLmv/hTRbcl6zDyFu/4pvbj8ZpV496mJj9bVQ//xG+9OmKoOgQ/OL/JzbkH41eV8fjj6Ad8Qh8lrkTRmTpLDEGHCueFuzepJjAbq4Z0bVDcyEErcnjrcnrNYTYvo9ZYUsJ7H8vEFNnL01S3XWqV0ThAnkwff4yuLu5oGenVpi1cDkC7gU90Z8flY6tGmLy7CXo3qE5Mj/FLU544bFjJ4UIya0MJrTAJJujo6O4uozUouvLgX/lynUhKRfFChWKm0KcOHEaxYsXSbRwwXuRmCQo+/G/z5+/BB+fTKLcDBkccf36LRQokEfuce7cRfkAsA+JzOfy40DS8W9cfOMXnbLQkyApHR0dYGVljYsXLyNPnly4eNFXBg0DUziITp06i1KlSuDs2QuysEKy0zpER8ciS5ZMLxn1Uud1htyYjol3V8bfLIedNzLbeuDgw3P4LfdnCIx+gD7XxoMLVzcjA3Ajyj++7wferTAmWy/RdVDQfYvmwSkmcI5sWUCSTpv3G2IfufTxQpUtVQwO9nbYte9IIoQsJfD94Af4afqv8fcgUevVrCykyps7O2ihA+7dl0EbFhGBYoXyg9tdnHOv3bgt/rpcObKiZeO6mDxzMfr3bG/WQhrd1vz58yS7MpiQwCQDA2soH3GhdeM9+P+PHTuFEiWKSjgdLdrTCEyhqUz248cxNDRUiBkeHgUu6NO157YDG608vQT2p2WmpeV2BC0zPxa3b9+Vv9G9Z+TPvXuBYq1pZUNCHqBo0YJC2Pz58wrB4+Q6Ixb4yJHjcHd3l/ehHJQnR45sqTPiX7K7fOu3FF/4zUvyrRISOKkOI3264ROf9jJVCQkJFd2Z21JMYE8PV3Rq0wRTZi1Jcn76eu0quHzlGs5dvPpcBOaAGjt5HiL+2/vlICpRtCCcaU3CwxEb8+jrwX3ifj3a4+yFyzhz/rLMiU2tbMmiKFo4H1as3YwP+nVJ1qryOs5Fuchkmos+DdSEBCaJ3N3dhAym+S5dVZKOcdN8D5NlPX78NEqUeNIC8zkkIYnF96UVjIyMEAI7OtqLW0yry48E57jcmuMHwsaGbnisWM64363jt+34rNy5c4hHUKxYYbmWFppu/aVLV8T6MlCF9+OHpXTpEjh58qx4ILy/Kd47uemEuQPvZev3d/AhNL70eYoIvC7v16jnUlqsL6c7lkRmpZjAlLRTm0bYvf8YLvleSyQ4rWSn1o0xdc5SGcQJm6UWmNceOnYK6zZuj7+Np4cburZvhl/mLkVYWOKgDq5wv1GnKibPWizWydR6dGqJbbv2o5BEaBUza/zQ7Xzw4IEM7Ge1hASmC3rmzAWxePQKaPVcXTOK20uy+PpeE4LzdxKErm6uXNnjF414LzZ+hS9cuCzWk9eFhIQIgb283GWuG7fyTUsNIeu1azfE6/i/9q47Pqoq+3+npk0mCemNQAhIFWwgIMJiwYIFBUEF21rBsuouq2uBta9iQV1FpegCIirFgoqAgF1BpCiEBFJIQkJ6nUwmM/N+n3PfvP6mJOB+9gdz/9Aw775bzjvfe84995xzST0mCdu/f1+UlR1me2diCpK2BMYDB4rYv8mwxe/Rc5k0JjBTe/SM5j1kyABmDS8vr2QqOL1PmkSwxSwkwh6HlTo5Nwbtvw2lriOa2QWSwLnWdOw+6XV2FnzwYDFyc3uzLUuo5agAbI+14fpplzILNJ0RE0PkZKdj1Bmn4PttvFVYXboDYLfHgwVLVqKpuZU1RwBOSeqB/MJiTftGgwFnnjGUjYkkHpVThw5glvH3167HLTOuZEweSqHFh6RwMCcOAglz5fQFNZA0JPCSRZcASvtOAqJgYKJx0e9k+aVjKHl0ity6TO0QQGnvTBKQgCYYmqh9Gp/8XQIeAZukP0lKqk/qt7yeEEXFA5FjgKXxCWo/zSE/v5BJaSr0jMZENKO64eKfAuQ+ObX0SU2FkdED0Ml5sL29QPPsk96P4fzYU5kGRb7Rubm9QtIOhYZCBvAz8xfqGqton3vO2JFIT01iHldNLW345odfcLiqWnemtA8d1D+vy3xA+9qVa75Aa5vS7zpYQ+TSOeWy87H1u20YNeIU5lLZlUKqLxmlbDZ+z3k8FloMSILTokKLC2kIXdmHHY806c6cPJwX9x5+A4vqPocb+seeQrsWmJhP9LPpf4bRYERdXQPbxtCi35USMoCXvv8xDpVXdaVt3bo3z7gSBKruFDJYLV6+Fo729pBeJ+eS6VMm4qMvNuPskacjMSH40ZG6YZJedJRC6mO4hCkQjALEL8/XrMY/qpYE9IV+MeNWzEq6lDVHCyhZ+cmQGOzEQ91/yAAmgxF5V5Ha151CrojkwkhulF0dpLw/Uucqq+tYgEJp+WE0t7Sy4xVqMzLCih7xduT2yka/vF4sGqqmrgEJcXZmDOpuIcMT7RFprxk24nSXiifWeyWuI/ik6Scsb/gKezsOMTAPjuyFafFjcVncSPS08tFHpPGQ3YMMjN0J8g8ZwCcW+bWzJRCThZmMUsE8s050WoXnH5wCJKnpmI/sFpmZ6d1OChEGcHBaizWI6LRXJOMQHS+RQYkk8tFoFF3oPlz1/zEFiHf4Y0Uvc5ahPS/xEAmEo+GfMIC7yBTC2S5Zj+kj0PGKcEbdxabC1U8oCvCBLnRqQAZCOgU4FtuxMIBPKCYKT/Z4o0AYwMfbFw3P54SigGHXngKfqxTZySSvKf4v+i/HLGjiE5ZBTye4XfS44uvzRaqrcZcOlG9EfJuiKMmx2M830fHB9lv3hPqs4ckGpIAe3/j43SByOv3lYzwlNHycLTQSaqIHHkv8WwJPy9/1tSfiiDnUK5DEanACHHzY5AFMocdS81SPDzrmIA8tZg2wNnUCjjmarpoy/AAEQigXAh0Sy14X2pIDWJiOWC0M4DBSu0MBPwCW868CvEIfCv4M1jGPH0n6COAVpJNaEPrqS5JSAWBRJAooFpaCnXsKOL01RACw8EwEn8FPtgC2DKi9T7QAFuS6KCl1iCmNxyeB5YuWbybiPILRMfw8TIEQKCDnObnQ0Wh0Mn3Vf7MCUyuZW/EvUbrqiHdJUsq0T5/jO1sShMUBMOzcs5/j5a9yveAHJ60i4voRAMC8rJVyQeZfAAAgAElEQVQPU6tuyxcYsQsZJdSLibo1ttr4VYECNBTCRwxXOQEooOIdifPlc+clZyhSWGhOKwS1wkySwWoVWi6pg2mmogjkddude/I5PZVYq537wCwAmOnqHDvDEvO9sXHQeRdYmB8RgD/jUq9vCs2CjTjQEqLLVpwXnRwHB2cAxRwJUYUsogZAtIGDhffQ19+zHxWv0gQ5uFxOtDvaWagfS/ljAPMHN5utiLHZWBoa+FvwjkH/bGZGorFs9WVD40R6/FH9c14v2tsdaHe0we2mVD7EC2AhjRGRUYi1xcLAspGGnt8pdJJwgNcLo9MJA0Wjya+2oVRCFG8dHQkYKZOK/h5VC1ytVBA3kDpbVXBenu9ZLjSJ/jwsePqrL1zgFwRf5VBvYwiotgsAFgdoVEg3rbDjEBVpQUpSIiKjIkAJ7fy5fwnnpRTN0tjUjIbGFrZ3FrUDxcDkKodW7RbWQw/HYVtnBD73xOMQZ0UjZ4ZHVNylHTKxjAkc7PAg2+jCBaZGjLQ4YQqVaH44iSJ5vtq0Hhs3rEd5eRmam5t9UULK1ZZoQlE9CQk9kJOTg8uvmIxhw07vlquccigcKA473ucaGsiJRMjLRXnKqmvqWCji0RaHow1vL1mI77/7FmVlh1ioJR8xJX1MtqCzyCsrUlPTMGjwYNx40y3o2zf0NEr+xmlsakHK6s2IKSyDtaYBRqcLBlo4fYYdkbeMRnisFnQm2tGWl42aS8+GO43P9qjW6KS+9NQ6mRSm/GMmICUlEdFRUSyyjOap54TBFlAvhWu60NrWzujPJ62RrQQG7Ui8Xo8vOaJs0dNR2an9ooo2rPm6wSeBxXZJz9ZfsUwmAzJSE5nnSHcKOT5Qkjun0w1RZIuDk3R6nsgqqclxqPQY8EZ7En7xdu9mhIHGNtwdVYNMEy8pulKIP0tLD+ClF55Dfn5+V14V65555kjMnHUPUlLTu/w+9R8dZUHP7AxFPK7T0YSD29aisWIv3C4HouPSEJ81GL2GnAtzRBRvmmSZQTjU1tWjuroeHlkChFAHQu9v2bIRj/9zDurqpFQwob5PETbTp1+Hm2+9AzZb17NqUv/xX29HxrL1MLdpUwsHG4cnwoIjl5+Nuolnk4rgqx7KPswHOg5ITLQjLTU5qPMFaSZcazs4jwemBP42EBYqWHkEDU2U8lhQn9X9G9DU1IgotjjIwl1VAG5uc2HZ+ips2tFMSoigQgsk0FM3eYbPzcn0my2P83TAk78WXGMxzMP+DEOMft4k+hCFB0vQ7uzk9QtdKSxZrflRcWjycLi7MRv1nP4lYpmRQKQRcHn5taHUT7CSzeDB8/YKZFgCh3qpGaK0pAh33HaTJjlBMMZRP8/Kzsb8V95AdHToeampjehIK/L68Bk4hNLe2oBPX5wKm5VUVlLXI9iq73A0orG1BebYXAwYcSEGjp4Ek5kP5GhuaUFJaWVIJgT52D/+aBXmPPLQUc//vPMn4MmnnoPVl20zJPp5OfRYtxWZKzZqlWH62LExAAWqdLqB5jalOi3rgFjtyEVnombaBXTDQEhdC5VSkuJZbnCNtCX3SEqX3N4OrqoWndv2oGNHATpa3TCfOhgJd04S+2Epjw5Xoq6x1Wdsom9JfCh80+AA9jo78Nri3/DrASn3uWEX2wMLWJKdPYm7cw55vbOY2qCegKeiDJ5D+2A0/ARv8Vp+cYlOg+Hce2GAE6boiRpC0WpE6W7cHtqsyR+zHbOGudq9HG6pzmTqsr/9zNvDTDgj3ohODih2eDFpm7+IKQ52gwevJ1UgzhzaCtzUUI9bbr6OZac4FiU9PQP/fn0RoqJDiy82G4GT+uUqnN07HC1Y+cTFSLTHISoyBjZ7MiKj7Wy/aYi2wxIdi99/2Qgz8pA1tC9Om/BnfikkB/qWVpQeqhJPJIPN6VBpMSZfcamuu2iCMQJmGFDrdYrfzW6wINJoQo1H+k3ex5QpU/HQo48F61Z8HrX3APKeegcGteaQFA88dy8QGw3klwBZqUC8DbjveaCoQrd9+uKVV5+H2kvG+p7LDziFY1QeUMJGLs4eg55+bvPgCorAzVsAt8sDt9eEDmMkOoxR6DBFwHpKf6TPvEgxDqJ/SWkZmludvg2yUo0OJoFtj82H+ZsdijYNu/bs15eDvoXBFh3BwvPU4O38dReci1+FIdYBb/33iDw7Cga7BS3NlTCd2QNWayes0RfBlPCyZjdfV9+A8spaaSBabUIE97qmKCxoDJwJsXe0AZ+eZQEx+8RvOlHYFhicV8fW45oefHaPYOXV+c9h3bpPFNXssbFoaW3tlkQiOt57399w3gTt4qY3ll490xQJ+LweN7avfwvFP36InIFnwt4ji13o5u1oh8FkgjXG5ktAYEdZfhkOVJThwlvnik2TlD5YVAoHbWWCFKezHVOnXIbSkhJFzV5mGxamj8OY6HRQBpQDria8ULcLl8f2xriYTFgNRlS6Hbiz6lt83Kp8lxauZctXok9e8D2xqakZ/R54FRamesoKqab/uhtYuwX4ZS8wYRRAF+yVVQH3TgeeWQLsLtSdnTsmEoVPzkRnijxxnP6eymI2oG9eL2br0Sve3YVwPbsEnSYzOkxWOE0RcJqj4LbbYT2pJ3JvGqd5jcJhCwQBJq0UbMkIBGDT/gNIuPcpGGRpotjru3YX+OzJvPopsj6zYHHom5uFaB1p4Vz1ETq3fApDbDu4so0wRjageWIc3B1NiDy9L6wWLyIMbkRk/gaDQRmLS1L49/yDQS2Ubq8Xtxeno9IdOAVOYgSw8Rwr8pu8uOcXN6qDbJOSTC4s6n0Y5iCXLHe6nJhx7RQ0NUlpanNzczF79mzMmjWLGbDGjRuHa6+dDmd7O37etg1Ll+pnJpR/yYyMDLy5cClMZKUOVDgPBg/sKyaEP3LgF/z02buoOPgNUtJ64sxzJ7ME9ZTJn1l9zWYcqazAax98iwfunIHW+kP4cdNXmPz3RYpeKM1O4cFyXUcBecXCgr2YOuUKTdLCtVkX4NJYZYIDtSGL2qHvN6DoPRzslG4roN/Pn3AB/vXcSyzpXqASt3U7ct5Yo63y5Czgh91AiwPYUwhMnwjUNgAtbUBJJXDLJODuZ/02XXXZGFRPvUD7XGVtTk2KQ1qa/1sDO3cXw/HW5/D2SgGXkQTLSdmIzEuH2RaJoq/2o8+5A3THUHqoHI2k7iu8DH0AjvTtgSWbLLO4x818GNYDygSRPID3FDDaE3CF4yDBmhdhMaF/v1zdQdR/8Q2qH70PlmgXrNYiRKS2ovAUEww5BpSlZsJu9iAj+XwM6v0qzEbtzQakSjSRKhGg7G014YHi4EafxWdbMTbNhLk7XLgsx4Qpm1xB93mP51RhqD2wFPrhu614bC6faZAk56oPVzHJ27dvX3z+2Wd4/InHceWVVzIGX7NmDRYtWoSnn34aNTU1ICldXlGBtLQ0VFVVsVQpBLK6et4I9Oprb6FPEMtsfGwUcnpmsfrO1ga8MfcWTBozFe9/9gT+dP4knDz8XJRVVqDycBVOG9wPZnsqGqtKMWTCLNx75wzcd8tk/LRpFUZf/YyGypSvrNMd2Baw4LX5WPDavzXvNvW7CbEm1aJsMYF7dBq8722F5bcyJpmp3Hx4CxY3KQ1/RJPVH32O6JjAtoDsl1cg4YfflP1TwrflTwJPLQay04CvfgZmXAzszAc6PQDtSW+fDDy5CKjSN7i19stG0dzbgwK4T6+MgLckOHdXwNvuQvQI7a2Xe74txpCz9G/DrG9oRHlFtY9HyYTOL2RNjTIjlvwIqL4RyVfdpYsUmS+09FwAcEyUFXm5OYoXWUzshn1o2fYbjGX74PzkZRi5diCzEwdnR+Pzjgik2g3I7tEPaT2ykB5lw2m9XofRoFRDKAH6kTptAnZ5Z5trrHihNPC9qTmxBmy8LAILf3fj52ovFo234qr1LmyvDsycs7JrcEGK9iZDef8rV7yDt5fw0uuhhx7CzJmzxK3EjOnTsemrTQzAtAB++uknePvtd7Bw4VsYNWo0Cgv245RTT0VsrB1z5jyKyy+/nB27rFjBZ+9/7PGnccaI0QEXsPSUOKSk8PNva6jCpkUvYPzoSzDv9dtwxdQbMHD4uZj32lKs37wdH73xN1jMFrgczdhbVAGn14JTB+Xip3VLkHjyJTjtnOsVfe0vKIFTpY6pBzP7/rvw5ZfrNWNsO+lmRBml70k80ZIVj9hrzwUGZsO1bBMsG3YzEN9euRVvNu5TtEG5pj/6ZD3i4gOfaOTOfR22AmXGU2aweuZuoLgC6N8b+OJ7GJ6YCe7pxTDE28BRxpiMZOCTb4Adyn6FQTjTE1Hw/H2+f/KHlKLDv0zy9euTxazC/krrnhq4292IH64VMt9vO4xRZ+jn0KasocWlh5W+0f5UaACHq5vx10c+xh21+3B50yGFI3O3AFy4YhvcxSWwOBpRuv1HVBzchaieudh+/UVY/fub6NMzBpedkYXs2A7EmZswqs9KmE3K44Mj1dWoqtEBsGz7uqEqAi8X+9//RpiAlRdbkRtvxHkfOtHhATZPiUSVg8OkjzrgDJD957acGlySERjAS/+zEMuX8Srxgw8+iLvuulv8lvPmPYeXXnoJkyZNwpQpV6G4uBi//LId27Ztw7Rp01iGzmHDhmL+/Pkgtfvss8fiwQcfYCCmMmfuExg56uzAAE6NR3IyP//2lnpsXDwH40ddi7cW383AP+KSG7Bhy4948z9rMO/hPyPB4sHewlL07pmB+IQ4tLQ48OvXn6K2tR0zHlmlBHBhCTo6pLS7egP5y923YfPmzZpHP/aahOFR/HWr9Lk8VhOaM+OAq8eix+Rx4FxudPxjCayb9mBMyVr84FSmWqVL2gjAdE4eqOQ+/G/EFBGjywpdQbP0cV7CUo4zylTaJ5sHa24WUFUL3DEZmLMA8CMgnKkJKHjxfmW7goVfxn8n5WUze4K/Ur+nCW6nBylnaOfx5a56nD9Uf36UIvhgSaXCJZLMabRVkx8jCWvJoaom3PDPdYzYIxy1uKtuP4Z0NPOHrVI0kjRM3uWLnDas6JenVQNaSmpRvvpbFO0pQH15OcrqqrENSShMTYcj7Uf0PNOGlNh2XH1yHIalnYveSTM0NCCTem0DGZLU1miqyg/9pxoLntirlMAmA3DtIDNOSjQgJdqACblm7K31YEeVlx0jVTR78eAoK7Yc8qCylUNJE4clu9xwq+xas0+qxtlpgS8KX/fpGrzy8ktsLImJifjxx59Ee8Dhw4dx1lmjMXHiRFGFpnp33nkn8vftA6XCvfHGG9leecGCN3DgQCHmzpWMSf967kUMHXpqQAZO6mEXbzokKffrl0uA2hZs+WYpcnNyMPqyGwCPC5YoO2zxyXA1HGbW/eIDZdj36z70GdwbbU2HkV+Qj9uf+ljRV/7+Irjo6CVAeeKxR/DBB9prbe5JGIIX0kaxUwPKxOi5/3KY0xNRsvQzJNxwARImjAB5Lvx4yb0464tXNB7yRMu1H3/BLvIKVHKeWQL7bm1qYjxyK1BcDtCZcFYKQJeBbd0O3HgZ8PZHwBXnAPe/4LdpR89UHHjmTtlz6ShH/hJv//EvgY/85oCrg0P2adJWwMtxoFPST/NbcdXJ+mfelMC9pOyIAsDUrwBgizVCEdHXVNOA+2a/iyJLNLwwwMJ5MbPhIKY1VwQGMPlNDR7EZ/GXF2Km/F8q8OvmA4iEF9/8XobKulbsTwAMNgOGX5oGk7UNidHA3BHXsrSZ6vd/31cAD0eeX0onDqEeMUdzhxfXbM1S7GcjzMCW66ORFadvANlb7YHLAwxL58/6mpwchr/VBodM2NBslo8tR1xEYI+OurpaXHv1ZHHoY84awww/SYmJ2Pr1VtTX1yMvL4+5jR4s4hmNDH4kkX/++SdkZ/dkKujq1Wvw+uuvY8MG6YLyD1d/CpstsFOK0cBhkO8WBWqb6L5z80psfO8ZpCWnIi0lAwkJyQy8eaPOQ1ttBW6b/hBcNU2Ii4vHPU/NRGRkJw47ojD+0hvFeVA7e37X5ihWc/x332zFzJm3aYBgggFf9bwEY2Iy4OI8cFw3FvFD+wHnnYLSu1+E7ZLRsJ97OgYOHIiDB7UAJJqt/OCjoJe9J324EemrdS6Rp3PcxXOB99cDZEfpYQf2HACiIoBX/g5s+hl4THubpjCRhhEDUXbP1ap5aUHcMzOFpb3xV8r2dqLDySHvVN4eUFLrwUub21Hr8WJQtgkPjtbf41dWVqOGaQdK3icAR0ZFIUKRf5scHFyIn3gzltvSMS++F7w+PMZ5OrUAFqQvGxHHIS01EakpWjV2xw+HsPuHUgbgzfsq4U5OgCHNjp2HduL0CXaYLG2wmp2YN2oWTMwnVSqURrOgqEzyiJK74snqcZwBz+6w4+tKJaNbjMDNZ1hwaqYJf/mkQwFwOl4+KcmItTMiseZ3Nx5c74KLfpSVU5MdeGx4Q9BcRMTo995zB/Lz9fdSfr+s7MHkyZMxbtyf8Pe/zxbV53PPOx/3//WhoB5h1H//fr0VGTXpt4/ffhJlO9cjwZ6ApKRkxMbG4eQxF2Hj+s14Zd67yExMQGZMHG5/+hY4Ol3oN2aGwoOI2R9qGoP2X1tbgwsnjNc9A840x+Cz7IswKCIBdRYvjA9PQ+KU8fC2OLDv0Tfw9/0b8NkX2gutiTQPPzwHk6+6Jmj/kYWH0HeOHyAmJwBXXwDQwtHWDlCy/up6/lhp9g3Ams3As2/rfqLie6eh5YxBQQEcGxOJ3N78DZHS6gc0lHP47VsOB0s4DL/QgIHDeGEyZ50bO6s9cFu8GNvXiNkj9E9P6BjJSWLaD4DZdbPippxgaEDU0g9h+8/H2GWNwdyEHOyz8JqBSoUWGF1ieEoHS5Zo4dYBYSItzU5s+aIQrpYO7OgE6my8OtTaXo+BQw8DplZc0WcM+scrVXBiwNJDFWiiczvRWYRfLPgieYPRX8WNBtz1VSqbhLxsuiMK+6u9mLlKfx/73KURGJ9nwsiXHXDJNEWDgcNTY2pwcnJo6XG/+3YLnnh8TrfOfPW4hz7OawsWIStLaRz0txgkxMcgKzNdsdg01Fbh3w9fg2iTC/H2ONhtNvTK64+k7L54/7W1MHS6kZnXB+OmjEREyilIzJAuVKc0pgWFJVKkTYBViL7Vq688j4Vv6YOInDjeyRiPK2J7o9HMIfLlO1CebMVtt9+O77//XrflAQMHYvm7H/rucQqyBHq9SF+4ColbdvrP00DSmAIXaD/vu4kDF44C5twOfLABeH6popOmk/ugdPb1YLfEKRhQcuCQuN+LnKw0luheKG31HJbNBuj6+tZo4JqZBgzozz9dst2LD/d7YYvhMHukCaelajXPetEHQnBbknrjJXA076nmc68SHErINTPhpgdgqjiCcjcwNb0/ai0RcgAL4lxuv+YHZouJRK+cbL/O+LurHHjphxqmSl7Qz46pQ/Q378QQNbV1qDxSLxFPHhep63/B4fNCCxbsSJIibACclGpEeQOHNpe+00a01YABqUbsKPeIawN1NX1QA6YOpuOrUB2iObyz5E2sWCHdkBiE7fw+Juf3v81+AH8aP6FL/WekJyFRlb2wrbUZ/7pnIixcByIjIhAdGYGLr7wGVpsdEbEpMBk6UdcM9Bk2XhwPHXcVFR+Co532/qHP/7rpU7Fr106/87rC1huvpY3B8uZC/KN+Ozrc+sYxWryWvL0Mg4cMC5mEBqcTff86H9Z63mgTcjlrGHDaQGD+u+wV4hKv1YzCZ2bBxc529flGCK0V3jGbDejft7cYuNBcx2HhI0AjB3h6AP/8J12pw4+KZFCHhwMZV/W2nWTYLDhYynyYqcjjemk0zQTg6GjJF1qI+PNN2rTzd1Te9QwONDqxIjsH2xN6CADW34cKxKJ2Ym1R6OUn+TRz0XN5maraI9IEkxhfKJGb6hw5Uo3q2ibejU/8GjL/az8OVPTuunwr3tzeA15vlz6jOADaT954Wj0uHeDSHV8gxnB3dmLFu0uw4t3l3ZbEBN6/3PdXnHfexUEdKNRjIa0hPaUHkpISRcYgmjjbHSgp2IPd27Zi/57t6N+vH2JtkUy69Ro8Gn2GjBSdRQi8xaVlaG3t6HL/rS1NePThB/DVV5v8kikCRnQEuE6ENLjF7yzDyUNO6Vr/HAdTayty5i2DrVB1pBQymgFXQiwKH7sVHgrGUdh0lEwnj43nQczBYjIir09PtjclLNRVAXX1HJIz6J6u0PiR8j8Xl1bATWGXPuYXAMyPwGeFjpYFM7AHPNp5vyoDGn/4Ffkzn8F3djs+zMwUAKx3ZqoaGAdERpqRnNwDcXZ7yKFxxGgUiVRT24Cm5jbJB1dsXi89j96X4bC7wowPd8dgZ2WUQhoH+o7Uzcnp7bhscBuG93R3jXnkDXMcSJ1e9cFK7Nu3N2TWIeAOHz4CV06ZxkueroZCyVbRhHgbkhITEBUZ6TeMzeOmOfJxuSQFCLh0WfiRmnq4yNGhm/2Tp9nK95bh/ffeRUWFvq+xHlHIqHfBhRdh5qy7kZSc2u3+jY52JK77FkkbfoK5pT1kaUyuk/VjhqHm8nHw2MmWEghwgm80wdYo34WyRT85KZ5pQqHmAifeJ6/D2roG1NY3STzrWzMIwPIg/3YnXYhnVW1X5eGS/Njbi8qw851P8EDxkUAAVgNLADnFexoQH2djOW7JQEX/FlQGGjSLBfZ60eHsQENjM1xkFhYZh0/WI9ExSMC3bIFkE+aA6lYOWwujUFhjRavLCDq79/j2yCRpKW4zxupFbmInxvV1IM1uYIHvx6J4PR6UHSrG11s3o6joIBxtbeh0u0V3QwroJ68rW2wsBgwYhLFj/4TE5FQ+uP1YFM6LyAgL6ApXUp1ZTCrRnylk/JEcHWXwl0W3sRsdWSxqN4GrGLKv3V93bMOmjV+irKwM7Q4Hu71QcKUkSUs5j+MTemDkyJEYf875iLXHHbP+4XbDtrsA9h37Ya1thLHDDQMF9BNjUOikychU5c4edrQO7oPm0weCoz2lNrpe92vwXEIE47+XWimktFGkjZKnHSX2p+/K8kYQ/X28T/8ndZmiv1pY+KMyQZ1cAeUErcVv4gkVgCne2jfy+sbm7gA4ECPKVXGZaqwg1dEBWNg5BKD+sYBJuI3jnQJ+tmvBAKwhi1wu+LHhKH2e+VVBeO1oAMyWDd6RQ0+F9ieBwwA+3nn7hJhfGMD6+1Q907yyZlgCnxAA+V+f5PEF4MBWaP5b+FOJ5V8qsArN00y0ofte1GnXL3GlB9Jfx2Zv+7/Ob+Hx/ZEUEOzAUh/y6wkC9qxmP3++DTqqttqIxcNMbTyWWaFZBWHPzWPSp0ILvfpBjghgAcj+pqReCCR1WwM9MalX8GMkoTclDeRjDYP4j2Tv47vtwMdIXZq71oVCet0PgIU8IOKuWA5g9TGST4jyRjMFgIV+/ANZuGBFsoH5UvsoZqgGsDKrn3x94/+m+rKrU0RaSrPVgyZfTT5Wef0wmLvEdCdgZeUdCT4eFADho4cS1oLVSXu0GpR8/hlYE8wg6gFivjgeT1ITkmWciT1KaauMRtICWKuqBgIXL+6V7+jMQPxJiETSroI8WbXvasGrXuSEd8JADspcJ2QFHhRaXTMA3yhSwMr0wVAUVjmNZfX53tQCTwlXSd8VFhkVT2sBLIBP27AmQbrcmUpctfwF0ftUad3VSNmXsop2f6xUxdXAPyE5MjzpblAgdAALSafVmdplnOoPyDpqswz+fgDM19BCRWc7SsproHhghWxjLWoHrRyj/t1Ikn6vQ2lNOKGg3SunKvwrDOBucGv4FQ0FugRgQV4rDEzKtMgCOhTtdgvAamdOIehCCWmhnwAZOfjrQ/xeTaK76silqZCmRJauRH9p4YnLgCxYAZQglu9SNHsTRUSJvtod5t8wBZSarJyL/Kin4gtqbdQHJFVec10A+yG7xOVKvMhHpbd9VDfHRq4vgbsUrCLJfHFZkHXFfvMRKdRtqd+9hX8oq5WOULsKs/aJRQEta/l+EQApMI7ws2yfyv+k3dbpU1C9SKjDF+V+19SCvoOUfz72jeaoARzo+4tz6CKAtfqyj3SyC5J5sS3rPQzZEwuKx2q2Mt7UkQ/qK3M11/74HYYkXXmJK5mtpCVAzs/++VeQ2PzyIfA8/64mL7QIi6PFg1wjZs6fvgb1pLQ/IqiWS/W9DSEfth+rbx1u5/imgM6elQAsZ9lAAJZe58GrVJAFcSO/f0SmjuvJIxn/S2OQRzAJeaF9Q1RcbXIsACxKSZ3GQmlfo+9IkNWqQqE0eHzzX3h23aGAXOzKto6iCi03zPpu1xS6kYtG3288F6qPU6VxUbOSMi3zgfAX5ugbhyQP5csCAzDdjSSJ94AW41Dp43cPq9J4Q6nnWwTkI+RbUa53UsthIIf6mU7cehLjaTEobYK1PEdSNNSwUAn4ym210CPdnay83Ez3eygil+THvLzIDuFys258ZnH14t/V4FRlKBBq6V1uJun9/tHu2853Y6DhV05sCgS63EyP3/x5FupRMUiSDLalFAAsyGWddmRYUspefj9s2Om7nZAXaP7vBw45BYIKvOohiWRRLH1ESIlg6n2GPHdQcIYTVoc/ThJXVVVi9ar3QQm6w+XoKUDJ06+aeg3S0oJfo3P0valhEKxFOWdKPKUrg8SmpD2w9IZMcrMf1QuEH37VAbAAHfo/D2Dx3QAAVmqt+rMWx0Tpp/VVDVZFNXstQJV7DbnlTduxnqITOHFKsE8W7Pl106dh165fg1ULP+8CBYacPBTLlmuTyHehiZCqymHjbxMmb0hIraOGnFz+KNlZ6EEPoL6aGgAHEDY6AlG+BMkAzPAsLgz6K4zanUxFM19qWB5w+pJQBLBsfhIEhR/5sUgbd/kuPfDa98dCl5/vHXfchO+//TYkhglXCo0CI0eNxoI3loRW+ahr6QJoiNYAAAHWSURBVKnH3VOZ5dJQALk626Tu2bECxIEBHEiXNOxk9wNrq8h/4afmw72/KyFZJb6OVtHQWes0UliavnIFDPS1lH353yUf9RdXNNDS0ozdu3fB1RHkHtNj2+1x2xolchs67BR2Edx/q2j1Nrm4oFHI9rtaMGiGqUWQVlWXtoZBBKEfAGj78JIKXaBKmc6/zYOBVGGp8NLTjxWOPVTWF1YeuTxW7IGljhQE0aWXXtShP8QGWrL+WxwS7ud/kwJ+eEYNaFE0qHlJR6XVTlQLXqEO/7r6+EiOEF9NnZ+kXFqSmq7rSslDUSlNRZ3fX/Y8Jsf1gxkI1j4FXVocAqxqcmLKCan7yn9L7P5vsmN4VMeIAmod8egALEgmJXMq/iW/0EBEhfyiPx9ixIH5EMhwJi0QPgALN7FIXQgAlstbcf+qZ6DilJZknq4CFPn/i4uA9EhJfsW+WFDc5auVqg39bcsx+qThZo5bCviVwtIDXQAr+DMYddSdqGKQNYLQV19+xZBOKmA+NFkGYEmF5uGlnZskrnkUymWpbBKyhqXVTC+lTtDc2jIdwvenv5zGYQAH46Lwcz0K6PANz/3yLWCwM1/lGXJwQvOgk1Rof/s8YXDK5wRc7RMO/wc939Fa74pKlwAAAABJRU5ErkJggg==;" parent="s3V0FGwePLYo2Qi6QxZB-33" vertex="1">
          <mxGeometry x="5" y="11.5" width="41" height="89" as="geometry"/>
        </mxCell>
        <mxCell id="s3V0FGwePLYo2Qi6QxZB-34" value="User gets&lt;br&gt;SMS with link&lt;br&gt;to S3 bucket" style="text;html=1;resizable=0;points=[];autosize=1;align=center;verticalAlign=top;spacingTop=-4;" parent="1" vertex="1">
          <mxGeometry x="856" y="320" width="90" height="40" as="geometry"/>
        </mxCell>
        <mxCell id="vS10Q0bFLuJ3R36XyXq_-1" value="&lt;br&gt;Fire In the room" style="text;html=1;resizable=0;points=[];autosize=1;align=left;verticalAlign=top;spacingTop=-4;" vertex="1" parent="1">
          <mxGeometry x="230" y="96.5" width="100" height="30" as="geometry"/>
        </mxCell>
        <mxCell id="vS10Q0bFLuJ3R36XyXq_-2" value="" style="outlineConnect=0;dashed=0;verticalLabelPosition=bottom;verticalAlign=top;align=center;html=1;shape=mxgraph.aws3.alexa_voice_service;fillColor=#5294CF;gradientColor=none;" vertex="1" parent="1">
          <mxGeometry x="450" y="120" width="30" height="33" as="geometry"/>
        </mxCell>
        <mxCell id="vS10Q0bFLuJ3R36XyXq_-4" value="Alerts people in the house by&lt;br&gt;&amp;nbsp;using Amazon Eco" style="text;html=1;resizable=0;points=[];autosize=1;align=center;verticalAlign=top;spacingTop=-4;" vertex="1" parent="1">
          <mxGeometry x="395" y="87.5" width="170" height="30" as="geometry"/>
        </mxCell>
      </root>
    </mxGraphModel>
  </diagram>
</mxfile>
